<svg xmlns="http://www.w3.org/2000/svg" viewBox="0 0 1195.89 855.27"><defs><clipPath id="clip-path" transform="translate(164.31)"><path class="cls-1" transform="rotate(180 508.995 252.795)" d="M491.48 202.64h35.03v100.32h-35.03z"/></clipPath><clipPath id="clip-path-2" transform="translate(164.31)"><path class="cls-1" d="M371.57 283.27h61v30h-61z"/></clipPath><style>.cls-1,.cls-2,.cls-3,.cls-5{fill:none}.cls-2,.cls-3,.cls-5{stroke:#000}.cls-2,.cls-3{stroke-miterlimit:10}.cls-2{stroke-width:4px}.cls-3{stroke-width:3px}.cls-5{stroke-linecap:round;stroke-linejoin:round;stroke-width:2px}</style></defs><g id="Capa_2" data-name="Capa 2"><g id="Capa_1-2" data-name="Capa 1"><path d="M412.58 301.83c2.25 1.13 3.38 0 7.89 1.13 6.91 1.72 4.58.92 9.39 2.62 4.26 1.51 8.64 1.88 13.34 2.42 8.83.59 19.81 8.27 22.56 15.86 3.8 10.49 4.89 10.84 12.73 2.75 3.35-3.46 5.92-7.66 8.95-11.44 2.88-3.58 5.79-7 11.17-6.83a7 7 0 0 0 4.62-2.33c2.81-3.09 5.22-6.09 10.06-6.39.73-.05 2.78-4.61 3-5.68s-.62-5-1-8.05a.78.78 0 0 1 1.48-.44c2.08 4.61 4 8.49 2.92 16.82-1.53 6.26-.43 13.13-.84 19.71-.28 4.54-1.5 9-1.73 13.57-.41 8-1.29 16.2-.26 24.09.92 7.07 7 10.77 13.6 13 5.08 1.71 10.11 3.56 15.16 5.33.46.16 1.21.06 1.4.35 4.14 6.4 11.94 5.75 17.25 9 .34-2.1 0-4.73 1.17-6.36 2.37-3.37 8-2.53 9.56 1.39 1.3 3.3 1.77 6.92 2.71 10.77a10.19 10.19 0 0 0 4.62-8.18 39.43 39.43 0 0 1 .44-5.11c1-4.73 4.43-6.28 7.89-3.09 3.72 3.42 8.13 5 12.48 7.09 4.94 2.42 9 6.53 13.58 9.81a13.46 13.46 0 0 0 7 2.89c-4.33-3.78-8.79-7.44-12.93-11.43-1.12-1.08-1.27-3.16-1.86-4.78 1.53.37 3.07.67 4.57 1.12a9.69 9.69 0 0 1 1.88 1c.56-2 .58-4.48 1.82-5.63.8-.75 3.47.24 5.18.82 5.29 1.78 10.43 3.28 14.72-2.06a4.47 4.47 0 0 1 2.43-1.54c7.14-1.2 14.29-2.3 21.44-3.36 1.44-.21 3 .15 4.39-.2 9-2.22 18.25-2.91 27.53-3.27 2.46-.09 5-1.76 7.25-3 6.33-3.55 12.51-7.35 18.84-10.9 2.8-1.58 6.09-3.66 6.81 2.12 0 .05 2.43.18 2.63-.25.58-1.23.6-2.72.94-4.72 6 2.08 11.44.71 17.08-1.35 6.56-2.4 13.52-4.24 22.18-1l-20.75 8.74c8.13-.42 22.26-5.94 27.43-9.25 6.33-4.05 12.83-8.09 20.58-9 1.93-.23 4.39-.88 5.77 0 4.62 2.92 8.3.43 12.06-1.44 10.42-5.2 21.52-9 30.68-16.76 4.49-3.79 9.65-7.48 16.63-6.19 1.62.29 4.45-1.93 5.45-3.71.72-1.3-.26-4-1.16-5.67-1.68-3.2-4.9-5.91-5.61-9.23-2.47-11.51-10-20.5-14.4-31-1.4-3.37-3.37-6.5-4.85-9.85-.43-1-.06-2.27-.06-3.42 1.35.05 3-.35 4 .25a12 12 0 0 1 3.42 3.71c3.79 5.7 7.35 11.55 11.25 17.16a11.51 11.51 0 0 0 5 4.14c10 3.7 13.34 12.51 16.4 21.29 2.07 5.93 3 12.25 4.55 18.35 1.34 5.12 3.91 9.26 8.72 12.18a28 28 0 0 1 8.27 7.87c2.06 3 2.49 6.44 7.07 8.07 2.74 1 4.4 6.17 5.62 9.78.82 2.43-1.69 2.52-3.43 1.87-9.72-3.6-18.92-8-25-17a4.88 4.88 0 0 0-1.7-1.18c-.15-.08-.45.1-1.15.29a9.59 9.59 0 0 0 .45 2.5c6.29 14.14 13.42 27.6 25 38.43 8.74 8.15 16.58 17.26 24.75 26 3.82 4.1 7.36 8.45 11.28 12.45a9 9 0 0 0 5 2.59 130.86 130.86 0 0 0 14.55.66c3.58 0 7.15-.48 11.66-.81-2.65 8.14-6.38 14.38-12.48 18.62-8 5.56-16.44 10.52-24.77 15.61-4.88 3-10.32 2.33-15.72 2.15-2.81-.1-6 0-8.41 1.14-9.46 4.43-18.64 9.46-27.86 14.35q-12 6.34-23.86 12.94c-15.33 8.56-30.9 16.53-47.37 22.72-7 2.64-13.65 6.33-20.58 9.23-2.42 1-5.24 1-7.86 1.56-3.77.83-7.53 1.74-11.29 2.66a13.76 13.76 0 0 1-2.06.73c-13.74.65-24.09 9.23-35.55 15.17a22.12 22.12 0 0 0-5.61 4.13c-4.82 4.87-9.56 9.83-14.14 14.92a33.77 33.77 0 0 0-4 6.1c-.72 1.27-.83 2.94-1.7 4-12.12 15.25-14.51 34.42-20.76 52a210.22 210.22 0 0 0-9.2 33.83c-3.18 17.85-10.08 34.54-14.55 52-1.2 4.7-1 9.8-2.35 14.43-4.92 16.55-10.9 32.81-15.2 49.51-2.68 10.41-5.58 21.09-4.28 32.21a59.22 59.22 0 0 1 .06 11c-.82 11.53 1.81 22.56 4.44 33.62.84 3.54 1.37 7.16 2 10.74H179.84c-2.65-6-5.65-11.69-5.79-18.65-.16-8.19.15-16 4.21-23.4 2-3.71 2.85-7.93.81-12-2.61-5.24-5.37-10.42-8.22-15.53-.52-.91-1.83-2-2.7-1.92s-1.8 1.38-2.28 2.36c-2.54 5.16-1.52 10.39-.57 15.78a78 78 0 0 1 1.37 16.61c-.19 4.65-1.91 9.63-7 11.08-5.54 1.59-5.46 5.22-5.2 9.6.3 5.35.27 10.72.39 16.08H2c-4.84-6.89.53-13.64.3-20.47 0-.38.47-.83.81-1.16 2-1.9 5.95-2 5.52-6-.53-5-.41-10.28-2-15-2-6.12-2.46-6.49 4-7.16 4.45-.46 6.66-2.75 7.22-6.83q2.34-17 4.43-34.07a34.49 34.49 0 0 0 .27-8.78c-1.29-9.62-.09-18.92 2.38-28.24 5.56-21 11-42 16.14-63.09a56.41 56.41 0 0 0 1.69-17.42c-.62-7.71 2-13.75 6.27-19.7a56.9 56.9 0 0 0 5.57-10.16c2.54-5.79 4.83-11.71 7-17.65a13.7 13.7 0 0 0 1.12-6.45c-1.66-10.47 3.79-18.94 7.59-27.8 3.48-8.08 7.3-16 7.48-25a9.23 9.23 0 0 1 1.28-4.17c4-7.19 7.36-15 12.55-21.27 5-6 7.77-12.84 11.46-19.33a52.89 52.89 0 0 1 16.93-17.95c3.19-2.13 7.85-2.51 11.9-2.81 9.92-.72 18.86-4.63 28-7.83.64-.22 1.73-.84 1.68-1.12-.31-2-.89-3.8 2.14-4.12s5.87-1.68 8.58-1.21c6.7 1.16 13.06-.61 17.48-5.73a14 14 0 0 1 2.37-2.11c6-4.41 11.82-9.07 18-13.11 3.59-2.33 7.88-3.55 11.71-5.53 9.27-4.79 18.64-9.44 27.58-14.8 2.88-1.73 4.92-5.29 6.68-8.38 6.76-11.89 16.53-19.54 30-22.36 1.4-.29 3.1-.71 3.67-1.93 2.92-6.3 7-12 13.25-15.12 8.85-4.46 11.29-9.58 8.7-16-.68-1.67-1.36-3.33-1.89-5.05-3.37-10.93-6.67-21.88-10-32.83-.07-.23-.28-.53-.2-.69 4.54-8.77-1.91-16.52-2.4-24.85-.78-12.9-2.46-25.74-3.56-38.63-.31-3.63-.68-7.52.27-10.93 1.61-5.76.27-10.65-2.63-15.37-1.86-3-3-6-2.32-9.69a13.19 13.19 0 0 0-.36-5.82c-3.08-10.59-2.71-21.6-1.33-32.07a343.47 343.47 0 0 0 2.95-36.51c.05-2.33 1.25-4.69 2.17-6.93 2.88-7 5.81-13.87 8.88-20.73a14.3 14.3 0 0 1 3.05-4c2.6-2.58 6-4.61 7.91-7.59 4.89-7.54 11-12.81 20.18-14.13 1.64-.23 2.9-2.5 4.52-3.54 3.84-2.47 7.83-4.68 11.68-7.13 3.26-2.08 6.76-4 9.51-6.6a16.79 16.79 0 0 1 13.95-5c7.3.64 14.54 1 21.68-1.92 2.39-1 5.8-.32 8.55.39 9.9 2.55 19.6 6.07 30.15 4.66 1.77-.23 3.81.55 5.56 1.27 3.59 1.48 7.06 3.24 11.6 5.36L442.16 79c1.79.67 2.45 1.19 3 1.08 4.9-1.09 8.71-.24 12.42 3.85a56.08 56.08 0 0 0 13.23 10.16c2.75 1.61 6.46 2.12 9.75 2.15a16.93 16.93 0 0 1 10 3.31c9.5 6.31 11.84 16 14.33 26.05a86.64 86.64 0 0 1 2.43 25.62c-.42 7.65-.59 15.42 2.55 22.85 1 2.33.14 5.37.62 8 1.1 6 1.88 12.14 4 17.77 3 4 3 4 3 7.35 1.13 2.25 0 2.91 0 4.5 0 2.26 0 1.13-1.12 4.51-.36 1.77-3.29 2.71-5.31 3.22-2.91.75-3.24-2.31-3.75-4.37-1.44-5.91-3.11-11.81-4-17.81-.64-4.42-2-8-5.78-10.49-4.07-2.6-5.5-6.51-6.23-11.09-.52-3.27-2-6.38-3-9.56a26.59 26.59 0 0 1-1.61-4.83c-.76-6-1.34-12-1.92-18.08-.33-3.39-.79-5.85-5.47-6-2.59-.1-5.45-2.78-7.5-5-4.61-4.86-4.44-5.06-11-2.94-9.78 3.14-19.45 6.67-29.35 9.34a54 54 0 0 1-15.1 1.39c-10.51-.21-21-1-31.51-1.48a1.33 1.33 0 0 0-.72 0c-9.87 5.35-19.49-.16-29.22-.69-8-.43-15.64 0-21.56 6.32a10.54 10.54 0 0 0-2.73 4c-2.42 9.35-8.75 15.51-18 16.18-3.91.29-6 2-6.91 5.29-1.82 6.28-4 12.29-1.56 19.27 2.34 6.81-.61 13.56-3.83 19.69s-3.12 12.19-1.36 18.52c.26.94.3 2.2.93 2.72 1.23 1 2.86 2.31 4.23 2.21a4.73 4.73 0 0 0 3.24-3c2.06-10 9.15-14.41 18.22-15.41a339.78 339.78 0 0 1 35.08-2c12.68-.08 25.4 1.49 38.06 1.11 16.6-.49 33.15-2.74 49.74-3.16 10.44-.27 21 1.13 31.39 2.33 7.69.88 12.69 5.52 15.53 12.85.95 2.47 3.41 4.35 5.41 6.77-3.51 1.14-4.13 4.82-4.69 9.1a110.26 110.26 0 0 1-4.15 17.78c-2.79 9.07-9.59 14.16-18.56 15.84-11.08 2.08-22.37 3.53-33.52.76a29.56 29.56 0 0 1-11.36-5.83c-5.61-4.61-6.81-6.84-10.32-11.5a36.16 36.16 0 0 1-3.06-5.11c-2.08-4.31-9.38-15.55-12.78-24.9-.89-2.45-2-2.45-4.28-2.45-1.12 0-2.6 1.57-3.11 3.06a74.86 74.86 0 0 0-3.31 13.43 55.21 55.21 0 0 1-10.79 26.18c-2.53 3.28-6.66 5.84-10.58 7.46-15.63 6.42-31.33 4.15-46.64-1.33a15.87 15.87 0 0 1-7.78-7c-3.47-7.23-5.88-15-8.63-22.53-.49-1.36-.1-3.21-.89-4.24-1.06-1.39-2.9-3-4.34-3-1.18 0-3.21 2.39-3.26 3.78-.53 15.14-1.83 30.44 2 45.29 2.17 8.43 4.64 17.3 9.33 24.42 5.13 7.79 12.81 14.85 22.66 16 5.9.67 10.06 2.52 13.53 7 .9-.64 1.84-.95 2-1.45 2.42-10.56 10.38-15.48 19.44-19.32 1.35-.58 2.65-1.28 4-1.88 8.43-3.5 7.3-3.5 15.19-6.88 2-.92 4.85-.17 6.77-1.12 2.25-1.13 4.5-3.39 5.63-2.26s7.89 1.13 9 0 2.51.14 4.3 1.03Zm-86.07 83.05c-.51.66-1.17 1.15-1.3 1.75-2.92 13.13-5.33 26.35-5.14 39.85.09 6.52.23 13.14 1.48 19.49a33.75 33.75 0 0 0 5.82 13.37c2.85 3.79 3.12 7.93 4.61 11.91 5 13.49 11.29 26.51 16.95 39.77 1.71 4 3.91 8.1 4.28 12.3a236.25 236.25 0 0 1 .61 27.14 28.23 28.23 0 0 0 3.73 14.65c3.8 7.08 6.94 14.5 10.58 21.66 1.75 3.45 3.42 7.27 6.14 9.85 10.27 9.74 21 19 31.53 28.46.26.24.92 0 1.85 0 .21-2.13.39-4.27.62-6.41 1.16-10.43 1.84-21 3.6-31.29 5.29-30.9 14.73-60.33 32.5-86.58 3.95-5.82 7.9-11.65 12-17.37s8.26-11.47 12.64-17c3-3.83 6.54-7.28 9.73-11 9.44-11 14.59-23.6 14.47-38.26-.12-14.34 0-28.68 0-43.25-.69.5-1.28.69-1.41 1-3.8 10.08-7.71 19.91-17.8 25.72-5.48 3.14-10.43 7.19-15.61 10.83-3 2.12-3.5 3.61-8.61 8.71-2.25 2.26-2.25 1.13-7.89 4.51-4.51 2.25-8.31 3.83-10.14 4.51a22.93 22.93 0 0 0-6.76 3.38c-1 .69 0 1.13-5.64 2.25-7.89 2.26-5.06 1.79-12.4 3.39-3.69.8-12.4 0-16.91-1.13a53.31 53.31 0 0 1-12.4-4.51 80.91 80.91 0 0 1-10.14-5.64c-6-4-9.86-9.92-15.1-14.48-9-7.87-18.76-15-24-26.33-.28-.53-1.15-.77-1.89-1.25Zm103-4.15c9.35-4.94 11.28-6.76 16.91-10.14 1.12-.68 6.28-6.28 6.77-7.89 1.32-4.41 5.63-7.9 4.61-13.13-.94-4.82-1.23-7.16-2.36-8.29-3.27-3.27-5.64-3.38-9-4.51a69.55 69.55 0 0 0-6.88-1.87 134.43 134.43 0 0 0-40.91-1.36 70.5 70.5 0 0 0-15.33 3.23c-2.39.8-12.49 3.21-14.65 4.51-5.64 3.38-5.64 5.63-7.06 9.37-.83 1.9-1.81 3.92.68 6.61 2.78 3 5.61 6.28 7.3 9.95 2.7 5.88 8.54 9.59 13.73 12.39 3.49 1.89 3.38 2.26 7.89 4.51 4.51 1.13 5.64 2.26 11.27 2.26h9c4.51 0 5.46-.39 10.14-2.26 5.61-2.25 4.48-2.25 7.86-3.38Zm-42.57-164.68c-.29.11-.28.62-.29 1.24 1 .69 2.26 1.94 3.16 2.7 4.73 2.94 12.12 2.35 16-.45a42.31 42.31 0 0 1 4.51-2.25s0-.64 0-1.13-7.89-1.12-12.4-1.12-8.92.23-10.98 1.01ZM671.83 83.16c2.09 2.49 5.39 5.56 7 8.34 2.12 3.72 4.69 3.84 7.94 2.12 3.67-1.94 2.7-4.86 1.19-7.53-3-5.31-6.32-10.47-9.43-15.74-.81-1.37-1.51-3.76-2.16-5.23.41-.3 1.83-2 2.25-2.25 2.25 2.25 1.73 5.21 2.61 6.92C687.09 81.28 697.5 87 708.92 91c5.68 2 10.25-.64 13.46-6.64-8-4.44-10-13.64-14.48-20.41.41-.26 1.84-2 2.25-2.25 3.38 3.38 2.72 6 4 8C720.06 79 730.21 81 739 74.56c4.54-3.34 5-6.5 2.09-11.25a50.15 50.15 0 0 1-4.68-9c-1.85-5.11-1.63-5.18 4.42-7.4 1.32 2.79 2.82 5.52 3.9 8.41s2.54 5.49 1.35 9.09c-.8 2.41.48 5.62 1.16 8.39.33 1.36 1.63 2.46 2.09 3.81.77 2.25 1.21 4.61 1.79 6.93-2.24-.1-4.58-.64-6.71-.18a9.68 9.68 0 0 0-5.21 3c-1.08 1.33-1.07 3.55-1.74 6.09-5.47-4.24-9.52-1.61-13 2.19-4.87 5.28-12 5-17.86 7.8a66.69 66.69 0 0 0-11 6.7c-.83.62-.69 3.17-.33 4.68 3.1 12.91 1 16.15-11.93 14.93a81.93 81.93 0 0 1-19.36-3.89c-.44-.15.27-1.65 0-2.25.81-.33 2.37-1.63 3.38-1.13 2.25 1.13 7.6 1.14 11.76 3.48a14.26 14.26 0 0 0 6.32 1.56c3 .11 6.32-3.42 5.11-5.7-2.22-4.21-4.52-9.56-8.3-11.53-6.27-3.28-9.52-7.65-10.05-14.14-.33-4.1-3.71-8.61-3.71-9.74.64-.41 2.65-1.85 3.34-2.25ZM751.57 127.27c-3-1-8.73-.15-11-.15.2-1.19-.36-4.24 0-4.51a46.88 46.88 0 0 0 5.89-6.25c3.35-4 5.9-8.33 4.29-14.07-.53-1.85.26-4.07.44-6.12 1.85.34 4 .21 5.48 1.1 5.57 3.21 11.62 1.7 17.23 1.28 2.82-.2 5.75-4.09 7.94-6.86 5.12-6.5 9.82-13.34 14.74-20a8 8 0 0 1 1.92-1.33c.33.85.93 1.68.73 2q-5.29 8.45-10.76 16.78c-2.78 4.22-5.67 8.37-8.51 12.55-4 5.94-7.93 11.91-16.58 11-.9-.09-2 1.65-3 2.54.93.68 1.77 1.75 2.79 2 3.33.74 6.75 1.07 10.1 1.77 2.36.5 4.53 1.87 3.11 4.57-2.69 5.11 0 9 2.41 12.93 1.43 2.37 3.28 4.13-.06 6.72-2.55 2-.63 4.42.88 6.39 1.69 2.21 5.56 4.86 2.69 7.19-3.49 2.84-5-2.26-7-4.19-1.38-1.28-3.65-2.74-4.74-4.36M837.26 245.48c-3.16-6.94-6.29-13.89-9.51-20.8-.81-1.75-2-3.34-2.86-5.06-3.44-6.65-6.88-13.3-10.19-20-.33-.65 0-2.37.47-2.55 1.49-.58 3.63-1.48 4.71-.85 5.73 3.29 11.61 6.84 13.43 13.76 2.1 8 3.8 16.11 5.2 24.26.63 3.63.11 7.46.11 11.2Z" transform="translate(164.31)"/><path d="M654.75 88.71c3.55 2.34 4.68 2.34 7.78 5.21 2.23 2.07 5.3 9.3 4 12.51-1.47 3.62-5.45 5.13-9.74 3.84-7.34-2.19-13-5.69-12.62-14.63.09-2.35-.93-4.73-1.7-8.33ZM809.17 191.12a17.22 17.22 0 0 1-2.62-2c-5.91-6.81-11.81-13.64-17.59-20.56-.66-.79-.6-2.18-.87-3.29 1.3.14 2.79-.07 3.85.51 3 1.62 6.14 3.2 8.59 5.48a158.81 158.81 0 0 1 12.37 13.17c.61.7.13 2.84-.5 3.95s-2.08 1.83-3.23 2.74ZM406.49 345.58a85.25 85.25 0 0 1 10.31.61c3.43.58 3.87 2.36 1.76 5a27 27 0 0 0-3.05 3.94c-2.44 4.75-3.84 5.39-8.21 2.95a112.11 112.11 0 0 1-10.55-6.44 5.41 5.41 0 0 1-2.21-3.64 7.62 7.62 0 0 1 4-2.38 66 66 0 0 1 7.95-.04ZM857.28 277.76c-3.82-7.16-9.16-13.45-11.81-21.29-1-2.93-3.15-4.76-6.56-4.43M836 246.17c.49-.74 1.56-1.69 1.38-2.18-2-5.54-1-12-5.05-16.93M725.76 352.7c-3.12.31-4.12 2.75-5.15 5.15M709.59 96.28c8.93.47 14.08-5 18.37-11.76M743.39 75.7a27 27 0 0 0-3.86-21.91c-2.51-3.78.16-4.76 1.66-6.74M797.76 69.83c.25.73.92 1.87.67 2.14a55.36 55.36 0 0 0-8.29 11.67c-3.62 6.68-9 12.44-13.74 18.47-.83 1-2.39 1.51-3.62 2.25M502.39 230.74l-8.81 1.47M768.37 347.56c-6 2-12.78.66-18.37 4.4-2.66 1.77-5.38 3.44-8.08 5.15M690.12 111.71l2.57 5.14c2.73 5.46-.51 11.52-6.61 11.62a15.55 15.55 0 0 1-8-2.22c-2.16-1.32-3.64-1.34-6-.86-1.4.29-3.37-2.17-5.08-3.4" transform="translate(164.31)"/><path d="M789.68 166.81c4.21 5.1 9.84 8.66 14.32 13.64a22.83 22.83 0 0 1 5.52 11.34M772.78 141.83c1.13 6 5.31 10.14 8.82 14.7M284.91 387.24q-.37 2.94-.73 5.87M608.2 380.62l11 6.62M451 77.17c-2.45-.24-5.07 0-7.3-.84-3.25-1.21-5.7-.37-8.13 1.58M86.53 540.8l-8.82-.74M479.62 128.61l-1.47 8.81M485.5 96.28l-1.5 8.81M330.46 151.38l-8.81-1.47M433.33 69.83c-.25 2.94-.49 5.87-.74 8.81M515.62 290.25c2.25 5 4.75 10.06-.73 14.7M755.15 124.93h-8.82M773.52 138.89l8.08 2.21" transform="translate(164.31)"/><path class="cls-2" d="M670.65 85.26s-8.82-11.76-22.78-11c-1.64.08-4.92 1.6-5.87 2.93-1.16 1.61-1.12 8.13-2.94 7.35-5.15-2.2-14-6.61-15.43-14-1.19-5.94-2.94-16.16-1.47-20.57 2.94-8.82 18.09-15.14 25-19.1 2.26-1.31 8.08-6.62 8.08-6.62s9.7-13.95 14.7-16.16c4-1.79 12.6.26 16.9-.74 2.58-.6 7.06-4.23 9.55-5.14 3.1-1.14 10.65 2.32 14 2.2 4.1-.14 12.1-2.1 16.16-1.47 2.12.34 5.88 2.94 5.88 2.94s6 7.39 8.82 8.82c2 1 9.87 3.21 11.75 4.41 8 5.16 11.7 10.31 11.7 10.31a159.17 159.17 0 0 0 14.69 13.22c7.35 5.88 11.76 7.36 17.61 17.63 7 12.28 19.1 29.39 30.86 39.68C861.59 129.45 937.36 205 937.36 205s44.52 47.77 56.58 65.39c11.27 16.48 30.86 58.78 35.27 70.54 1 2.72-.29 7.89-1.47 10.28-4 8-17.64 29.39-17.64 29.39s-6.13 8.41-7.34 10.29c-2.16 3.34-10.29 11.76-10.29 11.76s-10.82 3.61-13.23 7.34c-1.19 1.86-3.67 9.56-3.67 9.56" transform="translate(164.31)"/><path class="cls-3" d="M655.22 33.09S643.79 42 642 46.31c-.85 2-.47 8.14 0 10.29 1 4.89 5.87 17.64 5.87 17.64" transform="translate(164.31)"/><path class="cls-2" d="M639.79 85.26s2.57 9.1 2.94 11.75c.51 3.64.14 12.74 1.47 16.17.38 1 5 3.85 5.88 4.41a67.71 67.71 0 0 0 16.16 7.34c5.89 1.75 18.27 4.63 24.32 3.55 19.77-3.55 52.1-3.55 52.1-3.55" transform="translate(164.31)"/><path class="cls-3" d="M680.94 19.13s-6.42 21.87-7.35 29.39c-.27 2.19-.63 6.7 0 8.82s4.41 7.34 4.41 7.34M707.39 13.25s-2.17 25.35-2.94 33.8c-.2 2.19-.64 6.71 0 8.82.77 2.53 5.88 8.81 5.88 8.81M738.25 20.6s0 11.75-1.47 26.45c-.15 1.46-5.88 0-5.88 0M751.47 25s-2.93 9-4.41 11.75-9.29 10.89-9.29 10.89" transform="translate(164.31)"/><path d="M795.71 172.13c4.21 5.1 9.84 8.66 14.32 13.64M625.1 54.4a6.09 6.09 0 0 1 2.2-1.18 7.76 7.76 0 0 1 4.41 0 5.94 5.94 0 0 1 2.2 1.18 6.25 6.25 0 0 1-2.2 1.18 7.66 7.66 0 0 1-2.2.32 8.05 8.05 0 0 1-2.21-.33 6.06 6.06 0 0 1-2.2-1.17ZM648.61 54.4a18.5 18.5 0 0 1 4.39-1.18 30.48 30.48 0 0 1 8.81 0 18 18 0 0 1 4.41 1.18 19 19 0 0 1-4.41 1.18 29.61 29.61 0 0 1-4.4.32 31.17 31.17 0 0 1-4.41-.33 18.47 18.47 0 0 1-4.39-1.17ZM678 55.87a21.37 21.37 0 0 1 4.68-1.54 35 35 0 0 1 4.76-.69 33.41 33.41 0 0 1 4.8 0 21.37 21.37 0 0 1 4.86.81 21.37 21.37 0 0 1-4.68 1.54 35.37 35.37 0 0 1-9.56.73 21.92 21.92 0 0 1-4.86-.85ZM710.33 51.46a18.57 18.57 0 0 1 4.31-1.54 29.77 29.77 0 0 1 4.38-.69 28.48 28.48 0 0 1 4.43 0A18.55 18.55 0 0 1 728 50a18.57 18.57 0 0 1-4.31 1.54 30.16 30.16 0 0 1-8.82.73 18.94 18.94 0 0 1-4.54-.81ZM691.22 79.38a23.48 23.48 0 0 1 4.43-2.59 38.44 38.44 0 0 1 4.68-1.79 37.11 37.11 0 0 1 4.87-1.17 22.83 22.83 0 0 1 5.13-.34 23 23 0 0 1-4.43 2.6 36.8 36.8 0 0 1-4.68 1.77 38.74 38.74 0 0 1-4.87 1.14 23.42 23.42 0 0 1-5.13.38ZM719.14 70.56a18.28 18.28 0 0 1 3.64-2.56 28.76 28.76 0 0 1 3.93-1.78 29.34 29.34 0 0 1 4.15-1.22 18.05 18.05 0 0 1 4.45-.36 17.4 17.4 0 0 1-3.64 2.58 27.65 27.65 0 0 1-3.93 1.78 29.34 29.34 0 0 1-4.15 1.17 18.05 18.05 0 0 1-4.45.39ZM672.12 83.79a9.78 9.78 0 0 1 2.65-1.88 14.71 14.71 0 0 1 2.86-1 14.46 14.46 0 0 1 3-.42 9.72 9.72 0 0 1 3.23.41 9.67 9.67 0 0 1-2.66 1.88 14.21 14.21 0 0 1-2.86 1 13.74 13.74 0 0 1-3 .42 10 10 0 0 1-3.22-.41ZM633.91 77.91a4 4 0 0 1 1.47-1.18 3.54 3.54 0 0 1 2.94 0 3.82 3.82 0 0 1 1.47 1.18 3.92 3.92 0 0 1-1.47 1.18 3.49 3.49 0 0 1-2.94 0 3.88 3.88 0 0 1-1.47-1.18Z" transform="translate(164.31)"/><g clip-path="url(#clip-path)"><path d="M656.86 847.07c.11-5.36.08-10.73.39-16.08.26-4.38.34-8-5.2-9.6-5.09-1.46-6.81-6.43-7-11.08a78.12 78.12 0 0 1 1.37-16.62c1-5.38 2-10.62-.57-15.77-.48-1-1.46-2.31-2.28-2.37s-2.19 1-2.7 1.93c-2.85 5.11-5.61 10.28-8.23 15.52-2 4.09-1.21 8.31.82 12 4.06 7.41 4.37 15.22 4.2 23.41-.14 7-3.13 12.66-5.78 18.65H158.7c.67-3.59 1.21-7.2 2.05-10.75 2.66-11.18 5.31-22.33 4.41-34a70.84 70.84 0 0 1 .21-11.74c1-10.72-1.82-21-4.4-31.06-4.3-16.7-10.28-33-15.2-49.52-1.38-4.63-1.15-9.72-2.35-14.42-4.47-17.42-11.37-34.11-14.55-52a211.66 211.66 0 0 0-9.2-33.84c-6.25-17.56-8.64-36.73-20.76-52-.87-1.1-1-2.77-1.7-4a33.77 33.77 0 0 0-4-6.1c-4.58-5.09-9.33-10-14.14-14.93a21 21 0 0 0-5.21-3.92c-11.59-5.91-22.01-14.69-35.86-15.35a11.28 11.28 0 0 1-2.06-.73c-3.76-.91-7.52-1.83-11.3-2.65-2.61-.57-5.44-.55-7.85-1.56-6.94-2.9-13.56-6.6-20.58-9.23-15.35-5.77-29.91-13.08-44.23-21q-15.36-8.46-30.84-16.73c-7.94-4.23-15.88-8.49-24-12.3-2.46-1.15-5.6-1.24-8.41-1.14-5.41.18-10.84.83-15.72-2.16-8.33-5.09-16.77-10-24.77-15.61-6.1-4.23-9.83-10.48-12.48-18.62 4.5.34 8.08.82 11.66.82a133.31 133.31 0 0 0 14.55-.66 9.07 9.07 0 0 0 5-2.59c3.91-4 7.46-8.36 11.28-12.45 8.17-8.75 16-17.86 24.74-26 11.61-10.83 18.74-24.3 25-38.43a10.59 10.59 0 0 0 .45-2.5c-.7-.19-1-.38-1.15-.29a4.79 4.79 0 0 0-1.7 1.18c-6.12 9-15.31 13.37-25 17-1.75.65-4.25.55-3.43-1.88 1.22-3.61 2.88-8.81 5.62-9.78 4.58-1.62 5-5.06 7.07-8.06a27.83 27.83 0 0 1 8.27-7.87A19 19 0 0 0-73.21 308c1.6-6.1 2.49-12.42 4.56-18.35 3.06-8.78 6.41-17.59 16.4-21.29a11.43 11.43 0 0 0 4.94-4.14c3.91-5.61 7.47-11.46 11.25-17.16a11.88 11.88 0 0 1 3.43-3.71c1-.6 2.63-.2 4-.25 0 1.15.37 2.46-.05 3.42-1.48 3.34-3.45 6.48-4.85 9.85-4.37 10.53-11.93 19.52-14.4 31-.71 3.32-3.94 6-5.61 9.22-.9 1.71-1.89 4.38-1.16 5.68 1 1.78 3.83 4 5.45 3.7 7-1.29 12.14 2.4 16.63 6.2 9.16 7.75 20.25 11.56 30.68 16.75 3.75 1.88 7.44 4.37 12.06 1.45 1.38-.87 3.84-.22 5.77 0 7.75.91 14.25 4.94 20.58 9 5.17 3.31 19.29 8.83 27.43 9.25l-20.75-8.74c8.66-3.28 15.62-1.44 22.18 1 5.64 2.06 11 3.42 17.08 1.35.34 2 .36 3.49.94 4.72.19.43 2.62.3 2.63.25.72-5.78 4-3.7 6.81-2.13 6.33 3.55 12.51 7.35 18.84 10.9 2.29 1.29 4.79 3 7.25 3.05 9.28.36 18.48 1.05 27.53 3.27 1.39.34 2.94 0 4.39.2q10.72 1.57 21.43 3.36a4.35 4.35 0 0 1 2.43 1.54c4.3 5.34 9.44 3.84 14.73 2.06 1.71-.58 4.38-1.57 5.18-.83 1.24 1.16 1.26 3.63 1.82 5.64a9.73 9.73 0 0 1 1.88-1c1.5-.44 3-.75 4.57-1.11-.59 1.62-.74 3.7-1.86 4.78-4.14 4-8.6 7.65-12.94 11.43a13.45 13.45 0 0 0 7-2.89c4.53-3.28 8.64-7.39 13.58-9.81 4.35-2.12 8.76-3.67 12.48-7.1 3.46-3.19 6.87-1.63 7.89 3.1a39.43 39.43 0 0 1 .44 5.11 10.2 10.2 0 0 0 4.62 8.18c.94-3.86 1.41-7.48 2.71-10.77 1.55-3.93 7.19-4.77 9.56-1.39 1.14 1.62.83 4.26 1.16 6.36 5.32-3.28 13.12-2.62 17.26-9 .19-.29.94-.18 1.4-.34 5.05-1.77 10.08-3.62 15.16-5.33 6.61-2.22 12.68-5.93 13.6-13 1-7.88.15-16.05-.26-24.08-.23-4.54-1.45-9-1.73-13.57-.41-6.58.69-13.45-.84-19.71-1.3-5.33 1.16-7.55 3.67-10.55.49 1.88-.09 3.61.21 5.17.2 1.07 1.62 2.73 2.49 2.73 4.86 0 7.26 3.3 10.07 6.39a7 7 0 0 0 4.62 2.33c5.37-.17 8.29 3.25 11.17 6.83 3 3.78 5.6 8 9 11.44 7.84 8.09 8.93 7.74 12.73-2.75 2.75-7.59 15.09-17.07 22.56-15.86 5.12.83 9.08-.91 13.34-2.42 4.81-1.7 5.07-2.73 2.22-7.2-1.28-2-2.36-3.84-.32-5.87 3.81-3.81 14.62-3.22 17.57 1.26 1.66 2.53 3.11 2.78 5.32 1.2 7.54-5.41 15.37-5.2 23.42-1.28 1.92.94 3.87 1.82 5.84 2.75-5.07 7.78-4.15 10.68 4.34 14.51 1.34.61 2.64 1.31 4 1.88 9.06 3.85 17 8.77 19.43 19.33.12.5 1.06.81 2 1.44 3.47-4.45 7.62-6.29 13.53-7 9.85-1.12 24.1-9.95 29.23-17.74 3.38-6.76 3.38-4.51 4.51-12.4 2.16-15.18.76-40.4.22-55.55 0-1.38-2.07-3.73-3.25-3.77-1.44 0-4.43-.07-6 .71-4.51 2.25-6.27 3.15-6.76 4.51-2.74 7.54-2.19 17.58-5.64 24.8-1.43 3-8.13 10.15-11.27 11.27-15.29 5.45-23 3.25-38.62-3.17-3.93-1.61-8-4.17-10.58-7.46a55 55 0 0 1-10.79-26.17 75.72 75.72 0 0 0-3.42-13.48c-.51-1.5-2.53-2.89-4.16-3.41-.73-.23-2.72 1.56-3.23 2.8-3.69 9-12.6 15.56-12.39 26.39 0 .4-.45.85-.77 1.21-4.24 4.7-8.12 9.82-12.88 13.93a28.6 28.6 0 0 1-11.48 5.85c-11.15 2.77-22.44 1.32-33.52-.76-9-1.69-15.77-6.77-18.56-15.85a110.14 110.14 0 0 1-4.15-17.77c-.56-4.28-1.18-8-4.69-9.1 2-2.42 4.46-4.3 5.41-6.77 2.84-7.34 7.84-12 15.53-12.86 10.42-1.19 21-2.59 31.39-2.33 16.59.43 33.14 2.67 49.74 3.17 12.66.38 25.07 5.95 37.75 6 11.7.07 15.42 1 27.05 2.25 9.07 1 10.68 2.79 15.78 7.89a12.79 12.79 0 0 0 9 3.38c2.26 0 4.5 0 5.64-1.12s1.12-6.77 1.12-9c0-6.76.95-4.07-2.25-10.15s-1.89-16.24.46-23c2.4-7 .26-13-1.56-19.28-1-3.32-3-5-6.91-5.28-9.25-.68-15.58-6.84-18-16.18a10.39 10.39 0 0 0-2.74-4c-5.91-6.37-13.55-6.76-21.55-6.32-9.73.52-19.35 6-29.22.68a1.6 1.6 0 0 0-.73 0c-10.5.53-21 1.27-31.5 1.49a54.42 54.42 0 0 1-15.1-1.39c-9.9-2.68-19.57-6.2-29.35-9.34-6.61-2.12-6.45-1.92-11.05 2.94-2.05 2.17-4.91 4.85-7.5 4.95-4.68.18-5.14 2.64-5.47 6-.58 6-1.16 12.07-1.92 18.08a26.84 26.84 0 0 1-1.61 4.83c-1.05 3.18-2.49 6.29-3 9.55-.73 4.59-2.16 8.49-6.23 11.1-3.81 2.44-5.14 6.07-5.78 10.49-.88 6-2.55 11.9-4 17.81-.5 2.06-.84 5.12-3.74 4.37-2-.52-4.79-2.55-5.14-4.32-.89-4.46-3.41-6.63-7.28-8.11-.85-.33-1.37-1.51-3-3.46 5.86 1.3 10.43.52 12-3.69 2.12-5.63 2.89-11.79 4-17.77.48-2.63-.36-5.66.62-8 3.08-7.3 3-14.9 2.57-22.42a87.47 87.47 0 0 1 2.41-26c2.48-10 4.83-19.74 14.33-26.05a17 17 0 0 1 9.94-3.43c3.29 0 7-.53 9.75-2.14a56.23 56.23 0 0 0 13.22-10.16c3.72-4.09 7.53-5 12.43-3.86.52.12 1.18-.4 3-1.07l-7.51-1.94c4.54-2.12 8-3.88 11.6-5.36 1.74-.73 3.78-1.51 5.56-1.27 10.55 1.41 20.25-2.11 30.15-4.66 2.75-.71 6.15-1.4 8.55-.4 7.14 3 14.38 2.57 21.68 1.93a16.78 16.78 0 0 1 13.94 5c2.76 2.64 6.26 4.53 9.52 6.61 3.85 2.44 7.84 4.66 11.68 7.12 1.62 1 2.88 3.32 4.52 3.55 9.22 1.31 15.29 6.58 20.18 14.13 1.93 3 5.31 5 7.91 7.59a14.35 14.35 0 0 1 3.05 4c3.07 6.86 6 13.78 8.88 20.72.92 2.24 2.11 4.61 2.17 6.94.31 12.21-11.28 24.13-9.67 36.3 1.38 10.47 2.25 21.41 4.51 31.56.41 1.86 1.92 4.89 2.25 6.76.66 3.67-1.13 5.64-1.13 9 0 5.54-1.42 10 .19 15.78.95 3.41.58 7.3.27 10.93-1.1 12.88.32 25.76-.46 38.66-.49 8.33 0 6.77 1.13 15.78.08.16-6.76 9.5-6.83 9.73-3.09 10.18-6.16 20.36-9.29 30.53-.78 2.56-1.71 5.08-2.68 7.57-1.68 4.33-1 8.07 2.35 11.41 6.75 6.67 13.37 13.47 20.14 20.12a6.69 6.69 0 0 0 3.22 1.31c13.46 2.82 23.23 10.47 30 22.35 1.76 3.1 3.8 6.66 6.68 8.39 8.94 5.36 18.31 10 27.57 14.8 3.84 2 8.13 3.2 11.72 5.53 6.1 3.95 11.81 8.5 17.67 12.82a17.2 17.2 0 0 1 2.73 2.37c4.42 5.14 10.78 6.92 17.5 5.76 2.7-.47 5.69.91 8.57 1.21 3 .32 2.46 2.14 2.15 4.11 0 .29 1 .91 1.68 1.13 9.17 3.2 18.11 7.1 28 7.83 4 .3 8.71.67 11.9 2.8a53 53 0 0 1 16.93 18c3.68 6.49 6.51 13.37 11.46 19.34 5.18 6.26 8.51 14.08 12.55 21.27a9.19 9.19 0 0 1 1.28 4.16c.18 9.06 4 17 7.47 25 3.81 8.86 9.26 17.33 7.6 27.8a13.84 13.84 0 0 0 1.11 6.45c2.18 5.94 4.47 11.86 7 17.65a57.49 57.49 0 0 0 5.56 10.16c4.23 6 6.9 12 6.28 19.69a56.47 56.47 0 0 0 1.69 17.43c5.11 21.1 10.57 42.11 16.14 63.09 2.47 9.32 3.67 18.62 2.38 28.23a34.57 34.57 0 0 0 .27 8.79q2.07 17 4.42 34.06c.57 4.09 2.78 6.38 7.22 6.84 6.48.67 6 1 4 7.16-1.55 4.7-1.44 10-2 15-.43 4 3.56 4.11 5.52 6 .33.33.82.78.81 1.15-.23 6.83 5.14 13.59.3 20.48Zm-173.5-469.15c-5.27 11.3-15 18.47-24 26.33-5.24 4.56-10.32 9.29-14.16 15.35-2.1 3.33-6.09 5.54-9.4 8-4.3 3.22-8.94 6-13.12 9.34-3 2.41-5.82 2.61-9.51 1.81-7.34-1.59-14.81-2.65-22.28-3.54-5.34-.64-7-2.07-5.85-7.43.66-3 .11-4.65-2.71-5.7-1.84-.68-3.54-1.68-5.38-2.36-7.94-2.92-7.95-2.9-12.87-10.85-.38 1.64-.36 2.79-.89 3.53a16.83 16.83 0 0 1-2.91 2.59c-.48-1-1.49-2.15-1.35-3.1.71-4.63-2.55-6.52-5.56-8.64-5.18-3.65-10.14-7.69-15.61-10.83-10.1-5.81-14-15.61-17.77-25.65-.14-.36-.72-.55-1.41-1 0 14.57.09 28.91 0 43.25-.12 14.66 5 27.26 14.47 38.26 3.19 3.71 6.7 7.16 9.73 11 4.38 5.54 8.53 11.26 12.64 17s8 11.55 12 17.38c17.77 26.25 27.22 55.68 32.51 86.58 1.76 10.33 2.43 20.85 3.59 31.29.24 2.13.42 4.27.63 6.41.93 0 1.58.2 1.85 0 10.57-9.43 21.25-18.73 31.53-28.46 2.72-2.58 4.39-6.4 6.14-9.85 3.64-7.16 6.78-14.59 10.58-21.66a28.26 28.26 0 0 0 3.73-14.65 236.25 236.25 0 0 1 .61-27.14c.37-4.2 2.57-8.3 4.28-12.31 5.66-13.25 11.92-26.28 16.95-39.76 1.49-4 1.76-8.13 4.61-11.91a33.75 33.75 0 0 0 5.82-13.37c1.25-6.35 1.39-13 1.48-19.49.19-13.51-2.22-26.73-5.14-39.86-.13-.6-.79-1.08-1.31-1.74-.81.41-1.68.65-1.92 1.18ZM395 375.25c-.71 3.16 1.22 4.51 4.28 3.38s5.75-2.63 8.75-3.47c6-1.71 6.07-1.57 10.66 1.43 3.74-2.17 7.12-4.25 10.61-6.13 5.19-2.8 10.14-5.58 12.84-11.45 1.68-3.67 4.52-6.93 7.3-9.95 2.49-2.69 2.1-4.31-.45-6.61-6.37-5.77-14.07-8.66-22.11-11-1.82-.52-4.68-.71-5.21-1.88-1.82-4.07-5.3-3.9-8.6-4.27-13.64-1.53-27.29-2.42-40.9.23a15.25 15.25 0 0 0-5.45 1.86 88.37 88.37 0 0 0-11.13 8.36 7 7 0 0 0-1.68 5.58 123.23 123.23 0 0 0 3.65 13.31c.48 1.61.82 3.94 2 4.56 7.86 4.24 14.2 10.95 23 13.72 5.12 1.62 7.82-.75 10-5.29 3.81 2.42 3.1 4.82 2.44 7.62Zm18.65-168.44c-1 0-2.9 1.05-2.89 1.58a5.55 5.55 0 0 0 1.6 3.57c3.81 3.66 7.44 3.5 11.77-.17.9-.76 1.91-1.38 2.88-2.07v-1.87c-4.43-.37-8.87-.85-13.32-1.04Z" transform="translate(164.31)"/></g><path d="M301 303a40.23 40.23 0 0 1-3.95 2.81c-1 .51-4.84-.33-5.63-1.12-2.26-2.26-2.93-5-3.39-7.89-.4-2.52-.7-9.89-1.12-12.4-1.13-6.77-5.64-10.15-6.77-16.91-.54-3.25-2.29-7-3.38-10.15a59.06 59.06 0 0 1-2.25-9c-1.13-5.64-1.13-5.64-1.13-10.15 0-1.71-1.69-7.32 0-9 2.82-2.82 8.1-.11 10.15 1.12 2.81 1.69 10.7-.56 10.7-.56M512.83 220.45s3.86-6 6.31-7.45c1.8-1.06 6.13-.88 8 0 2.68 1.24 5.4 7.13 5.73 9.17 1.17 7.07 1 18.79-.57 25.79-.67 3-2.51 4-3.44 6.87-.84 2.56-.25 12.88 0 16 .3 3.9.54 11.17 0 14.9-.36 2.54-1.38 5.56-3.44 6.88-1.69 1.08-5.1 1-6.88 0-2.37-1.3-1.72-9.74-1.72-9.74M384.49 268.22c.77 1.6 2.62 3.78 2.12 4.72-4.22 7.9-8.86 15.56-13.38 23.3l-3.34-1.8 14.77-26.36Z" transform="translate(164.31)"/><path class="cls-5" d="M384.78 272.2 370 297.13" transform="translate(164.31)"/><path d="M420.86 267.55c-.77 1.6-2.62 3.78-2.12 4.71 4.22 7.9 8.87 15.57 13.38 23.3l3.34-1.8-14.77-26.35Z" transform="translate(164.31)"/><path class="cls-5" d="m420.57 271.52 14.77 24.93" transform="translate(164.31)"/><g clip-path="url(#clip-path-2)"><path d="M297.74 264.74c-1.76 16.51 3.6 31.71 11.67 45.27 3.95 6.63 12.65 11.47 20.24 14.69 8.43 3.59 18.3 8.52 25.07-4.8 2.09-4.12 9.8-5.19 14.85-7.63 9-4.36 7.71-13.27 6-16-.76-1.23 14.9-8.42 24.79-4.92 2.74 1 6.2 0 9.32-.19 4.13-.2 8.42-1.52 12.35-.53 2.54.64 7.54.64 5.53 9.33-.28 1.19 0 4.31 1 4.83a26.28 26.28 0 0 0 11 3.37c15.42.65 24 6.2 27 16.83.56 2 1.75 3.81 3.72 8 6-6.2 11.25-11 15.84-16.41 3.81-4.46 7-8.5 13.71-9.73 3.8-.7 7-5.61 10.06-8.92 2-2.1 3.34-4.77 5.36-7.75 3.29 3.51 5.22 6.27 4.66 11.8-1.88 18.3-3.19 36.73-3.38 55.12-.09 9.57 8.25 13.6 17.83 16.86h-89.75c.27-1.19.24-2.28.61-2.43 9.4-4 9.42-13.15 10.43-20.92.39-3-3.44-8.32-6.66-9.83-7.83-3.68-16.28-7.18-24.77-8.1-9.84-1.08-20 .67-30.65 1.22l1.16 5.88a24.35 24.35 0 0 0-3.07.54c-8.89 3-17.92 5.57-26.58 9.09-4.32 1.76-5.07 5.17-1.41 9.34s6.43 9.14 10.4 14.95h-70.45c.15-.55.1-1.81.66-2.19 11-7.63 6.16-16.65 2.87-26-3.38-9.54-8.41-19.47-8.12-29.09.53-17.7-6.78-34.2-5.73-51.7Z" transform="translate(164.31)"/><path class="cls-5" d="m458.05 368.84-14.78 4.4M396 339.52l-8.86-2.93" transform="translate(164.31)"/></g><path d="M1027.73 352.37c-12.71 22.1-21.37 37.27-35.38 51.61-9.58 3.26-14.2 5.45-17 16.94l-31.12.5-44.85-51.07C876 335 831.66 236.41 814.33 196.56l-64.41-71.18-59.8 1.52-3.47-20.73-17.17-20.66c2 .14-19.27-18.51-28.75-8.1-1.16 1.62-1.12 8.15-3 7.37-16.3-5.46-18.66-19.64-16.95-34.64 4.81-12.23 26-17 33.16-25.8 0 0 9.74-14 14.75-16.23 4-1.78 12.65.28 17-.73C698.6.27 695 1.62 709.28 4.43 713.4 4.3 721.43 2.32 725.5 3c7.42 1.8 7.59 7 14.74 11.8 23.3 7.77 18.25 12.68 38.34 28 20.28 12.61 28.52 41.77 48.65 57.49C923 194.54 983.86 231.64 1029.21 342c1.02 2.78-.28 8-1.48 10.37Z" transform="translate(164.31)" stroke-miterlimit="10" stroke="#000" fill="none"/></g></g></svg>