<svg xmlns="http://www.w3.org/2000/svg" xmlns:xlink="http://www.w3.org/1999/xlink" viewBox="0 0 562.51 1078.1"><defs><style>.cls-1{fill:none;}.cls-2{clip-path:url(#clip-path);}.cls-3{fill:#fff;}</style><clipPath id="clip-path" transform="translate(-260.71 -3.8)"><rect class="cls-1" width="1075" height="1082"/></clipPath></defs><g id="Capa_2" data-name="Capa 2"><g id="Capa_2-2" data-name="Capa 2"><g class="cls-2"><path class="cls-3" d="M429.62,1081.56c-.11-161.7.31-322.25.07-482.64-3.16-2.09-6.1-1.39-8.87-1.4q-33.63-.07-67.24,0h-91.7a46,46,0,0,1-1.08-5.18c-.17-2-.05-4-.05-6V407.43a45.07,45.07,0,0,1,6.13-.89c12.93-.08,25.86-.05,38.79-.05H428.78c2-3.45,1.23-6.68,1.24-9.72q.09-53.88.05-107.76c0-11.2-.07-22.41.24-33.61.71-25.61,2.91-51,9.85-75.85,7.4-26.43,17.86-51.5,32.53-74.78,27.39-43.46,65.83-72.11,115.06-86.51,21.86-6.4,44.22-9.9,66.83-12.18A437.06,437.06,0,0,1,699.32,3.8,351,351,0,0,1,745.7,7.19c21.61,3,43.18,6.25,64.76,9.47,3.94.58,7.83,1.49,12.09,2.32a42.73,42.73,0,0,1,.64,5.18q0,74.57,0,149.13c0,1.41-.2,2.83-.33,4.69a38.86,38.86,0,0,1-4.93.76c-27.86.65-55.72,1.1-83.57,1.93-9.73.29-19.54.65-29,3.53-31.27,9.53-51.55,30.14-61.53,61.07a187.34,187.34,0,0,0-7.36,36.23c-2.29,19.77-1.84,39.59-1.84,59.41,0,19,.17,37.93.3,56.89,0,2.53.2,5.06.32,7.8,3.34,1.37,6.52.86,9.59.86q52.59.07,105.17,0,28.46,0,56.9,0c2.81,0,5.63.2,8.42.3a12.37,12.37,0,0,1,.57,3q-12.18,91.82-24.44,183.61a24.83,24.83,0,0,1-1,3.45c-3.11,1.26-6.29.72-9.37.72q-67.67.06-135.34,0H636a44,44,0,0,0-1,5.22c-.15,2.87,0,5.75,0,8.62v469.24a46.41,46.41,0,0,1-5.26,1.09c-2,.18-4,.06-6,.06H440.91C437.52,1081.85,434.13,1081.68,429.62,1081.56Z" transform="translate(-260.71 -3.8)"/></g></g></g></svg>