<svg xmlns="http://www.w3.org/2000/svg" xmlns:xlink="http://www.w3.org/1999/xlink" viewBox="0 0 1094.58 1021.88"><defs><style>.cls-1,.cls-2,.cls-3,.cls-4,.cls-6,.cls-9{fill:none;}.cls-2,.cls-3,.cls-4,.cls-6,.cls-8,.cls-9{stroke:#000;}.cls-2,.cls-3,.cls-4,.cls-9{stroke-miterlimit:10;}.cls-3{stroke-width:3px;}.cls-4,.cls-8{stroke-width:4px;}.cls-5{clip-path:url(#clip-path);}.cls-6{stroke-linecap:round;stroke-linejoin:round;stroke-width:2px;}.cls-7{clip-path:url(#clip-path-2);}.cls-9{stroke-width:5px;}</style><clipPath id="clip-path" transform="translate(91.44)"><rect class="cls-1" x="490.84" y="181.05" width="31.11" height="89.07" transform="translate(1012.78 451.18) rotate(180)"/></clipPath><clipPath id="clip-path-2" transform="translate(91.44)"><rect class="cls-1" x="384.37" y="252.65" width="54.16" height="26.64"/></clipPath></defs><g id="Capa_2" data-name="Capa 2"><g id="Capa_1-2" data-name="Capa 1"><path d="M420.78,269.13c2,1,3,0,7,1,6.14,1.53,4.07.82,8.33,2.33,3.78,1.34,7.68,1.67,11.85,2.15,7.84.52,17.59,7.34,20,14.08,3.37,9.32,4.35,9.62,11.3,2.44,3-3.07,5.26-6.8,7.95-10.15,2.56-3.18,5.15-6.22,9.92-6.07a6.22,6.22,0,0,0,4.1-2.07c2.49-2.74,4.63-5.41,8.94-5.68.64,0,2.46-4.09,2.65-5s-.55-4.47-.9-7.15a.7.7,0,0,1,1.32-.39c1.84,4.1,3.58,7.54,2.59,14.94-1.36,5.56-.38,11.66-.74,17.5-.25,4-1.34,8-1.55,12.05-.36,7.13-1.14,14.38-.23,21.38.82,6.28,6.21,9.57,12.08,11.54,4.51,1.52,9,3.16,13.46,4.74.41.14,1.07,0,1.24.3,3.68,5.69,10.6,5.11,15.33,8,.29-1.87,0-4.21,1-5.65,2.1-3,7.11-2.25,8.49,1.23,1.15,2.93,1.57,6.14,2.4,9.57a9,9,0,0,0,4.1-7.27,36.12,36.12,0,0,1,.4-4.54c.9-4.19,3.93-5.58,7-2.74,3.3,3,7.22,4.41,11.08,6.3,4.39,2.14,8,5.79,12.06,8.7a11.86,11.86,0,0,0,6.22,2.57c-3.85-3.36-7.81-6.61-11.49-10.15-1-.95-1.12-2.8-1.64-4.24,1.35.32,2.72.6,4,1a8.93,8.93,0,0,1,1.67.89c.5-1.78.52-4,1.62-5,.71-.66,3.08.22,4.6.73,4.69,1.58,9.26,2.91,13.07-1.83a4,4,0,0,1,2.16-1.37c6.33-1.06,12.68-2,19-3,1.28-.19,2.66.13,3.9-.17,8-2,16.2-2.59,24.44-2.91,2.19-.08,4.41-1.56,6.44-2.7,5.62-3.15,11.11-6.53,16.73-9.68,2.49-1.4,5.41-3.25,6,1.88,0,.05,2.16.16,2.33-.21a17.87,17.87,0,0,0,.84-4.2c5.35,1.84,10.15.63,15.16-1.2,5.82-2.13,12-3.76,19.69-.85L718.47,318c7.22-.37,19.77-5.27,24.35-8.21,5.63-3.6,11.4-7.18,18.28-8,1.72-.21,3.9-.79,5.12,0,4.11,2.59,7.38.38,10.71-1.28,9.26-4.62,19.11-8,27.24-14.88,4-3.37,8.57-6.65,14.77-5.5,1.43.26,3.95-1.71,4.83-3.29.65-1.15-.23-3.53-1-5-1.49-2.84-4.35-5.25-5-8.19-2.19-10.22-8.9-18.21-12.78-27.56-1.25-3-3-5.77-4.31-8.74-.37-.85,0-2,0-3,1.2.05,2.63-.31,3.53.23a10.44,10.44,0,0,1,3,3.29c3.37,5.06,6.52,10.26,10,15.24a10.21,10.21,0,0,0,4.4,3.67c8.86,3.29,11.84,11.11,14.56,18.91,1.83,5.26,2.62,10.88,4,16.29a16.87,16.87,0,0,0,7.73,10.81,24.75,24.75,0,0,1,7.35,7c1.83,2.67,2.21,5.72,6.28,7.16,2.43.86,3.9,5.48,5,8.69.72,2.15-1.5,2.24-3,1.66-8.63-3.19-16.79-7.11-22.22-15.07a4.63,4.63,0,0,0-1.51-1.05c-.13-.07-.4.09-1,.26a9.14,9.14,0,0,0,.39,2.22c5.59,12.55,11.92,24.51,22.23,34.12,7.75,7.24,14.71,15.33,22,23.1,3.39,3.64,6.54,7.5,10,11.05a8,8,0,0,0,4.46,2.31,118.49,118.49,0,0,0,12.92.58c3.18,0,6.35-.43,10.35-.72-2.35,7.22-5.66,12.77-11.08,16.53-7.11,4.94-14.6,9.34-22,13.86-4.33,2.65-9.16,2.07-14,1.91-2.49-.08-5.29,0-7.47,1-8.39,3.93-16.55,8.39-24.74,12.73q-10.64,5.64-21.18,11.5c-13.61,7.6-27.44,14.67-42.06,20.17-6.24,2.34-12.12,5.62-18.28,8.2-2.14.89-4.65.88-7,1.38-3.35.73-6.69,1.55-10,2.36a11.14,11.14,0,0,1-1.83.65c-12.19.57-21.38,8.19-31.56,13.47a19.47,19.47,0,0,0-5,3.66c-4.28,4.33-8.49,8.73-12.56,13.25a30.31,30.31,0,0,0-3.51,5.42c-.64,1.13-.74,2.61-1.52,3.59-10.75,13.54-12.88,30.56-18.43,46.15a188.84,188.84,0,0,0-8.17,30c-2.81,15.85-9,30.67-12.91,46.13-1.07,4.18-.86,8.7-2.09,12.81-4.37,14.7-9.68,29.14-13.5,44-2.37,9.24-5,18.72-3.8,28.6a52.05,52.05,0,0,1,.06,9.75c-.73,10.23,1.6,20,3.94,29.84.75,3.15,1.22,6.36,1.82,9.54H214.13c-2.36-5.31-5-10.38-5.14-16.56-.14-7.27.13-14.2,3.74-20.78,1.8-3.29,2.53-7,.72-10.66-2.32-4.66-4.77-9.25-7.3-13.79a3.44,3.44,0,0,0-2.4-1.71c-.73.05-1.59,1.23-2,2.1-2.26,4.58-1.35,9.23-.51,14a69.7,69.7,0,0,1,1.22,14.75c-.17,4.13-1.7,8.55-6.22,9.84-4.92,1.41-4.84,4.63-4.62,8.52.28,4.75.25,9.52.35,14.28H56.26c-4.31-6.11.46-12.11.26-18.18,0-.33.42-.73.72-1,1.74-1.7,5.28-1.78,4.9-5.35-.47-4.46-.36-9.13-1.74-13.3-1.8-5.44-2.19-5.76,3.56-6.36,3.95-.41,5.92-2.44,6.41-6.07q2.09-15.11,3.94-30.24a30.94,30.94,0,0,0,.23-7.8c-1.14-8.54-.08-16.8,2.12-25.07,4.94-18.63,9.79-37.29,14.32-56a49.71,49.71,0,0,0,1.51-15.47c-.56-6.85,1.82-12.2,5.57-17.49a51.55,51.55,0,0,0,4.94-9c2.26-5.14,4.29-10.4,6.22-15.68a12.13,12.13,0,0,0,1-5.72c-1.48-9.3,3.36-16.82,6.74-24.68,3.09-7.18,6.48-14.18,6.64-22.22a8.08,8.08,0,0,1,1.14-3.7c3.58-6.39,6.54-13.33,11.14-18.88,4.4-5.3,6.9-11.41,10.17-17.17a46.92,46.92,0,0,1,15-15.94c2.83-1.89,7-2.23,10.57-2.49,8.8-.65,16.74-4.12,24.88-7,.57-.2,1.54-.75,1.5-1-.28-1.75-.79-3.37,1.9-3.66s5.21-1.49,7.61-1.07c6,1,11.6-.54,15.52-5.09a12.5,12.5,0,0,1,2.11-1.87c5.31-3.92,10.49-8.06,16-11.65,3.19-2.06,7-3.14,10.41-4.9,8.23-4.26,16.54-8.39,24.48-13.15,2.56-1.53,4.37-4.69,5.93-7.44,6-10.55,14.68-17.34,26.63-19.85,1.24-.26,2.75-.63,3.25-1.71,2.6-5.6,6.26-10.66,11.77-13.43,7.86-4,10-8.51,7.73-14.21-.6-1.48-1.21-3-1.68-4.49-3-9.7-5.92-19.43-8.87-29.15-.06-.2-.25-.47-.18-.61,4-7.79-1.69-14.67-2.13-22.06-.69-11.46-2.18-22.86-3.16-34.3-.28-3.23-.6-6.68.24-9.71,1.43-5.11.24-9.46-2.33-13.65-1.66-2.69-2.65-5.35-2.06-8.6a11.91,11.91,0,0,0-.33-5.17c-2.73-9.4-2.4-19.17-1.17-28.47a306.15,306.15,0,0,0,2.47-32.39c.05-2.07,1.11-4.16,1.93-6.15,2.55-6.17,5.16-12.31,7.88-18.4a12.73,12.73,0,0,1,2.71-3.59c2.31-2.29,5.31-4.09,7-6.74,4.35-6.7,9.73-11.38,17.92-12.55,1.46-.2,2.57-2.22,4-3.14,3.41-2.19,7-4.16,10.37-6.33,2.9-1.85,6-3.52,8.45-5.87a14.91,14.91,0,0,1,12.38-4.45c6.49.57,12.91.94,19.25-1.71,2.13-.88,5.16-.28,7.59.35,8.8,2.27,17.41,5.39,26.78,4.14a10.43,10.43,0,0,1,4.94,1.13c3.18,1.31,6.26,2.87,10.29,4.76l-6.66,1.72c1.58.6,2.17,1.06,2.63,1,4.36-1,7.74-.22,11,3.41a49.71,49.71,0,0,0,11.74,9,18,18,0,0,0,8.65,1.9,15.11,15.11,0,0,1,8.84,3c8.43,5.6,10.52,14.23,12.72,23.13a76.69,76.69,0,0,1,2.16,22.74c-.37,6.8-.52,13.69,2.26,20.29.88,2.07.13,4.77.56,7.1,1,5.31,1.67,10.78,3.55,15.78,2.66,3.51,2.66,3.51,2.66,6.52,1,2,0,2.58,0,4,0,2,0,1-1,4-.32,1.57-2.92,2.4-4.71,2.86-2.59.67-2.89-2-3.33-3.88-1.28-5.25-2.77-10.48-3.55-15.82-.57-3.92-1.75-7.14-5.13-9.3-3.62-2.32-4.88-5.79-5.53-9.86-.46-2.89-1.75-5.66-2.68-8.48a24.83,24.83,0,0,1-1.43-4.29c-.67-5.34-1.18-10.7-1.7-16-.29-3-.7-5.2-4.86-5.36-2.29-.09-4.83-2.47-6.65-4.39-4.1-4.32-4-4.49-9.82-2.61-8.68,2.78-17.26,5.91-26.05,8.29A48.13,48.13,0,0,1,424,125.4c-9.33-.19-18.65-.85-28-1.31a1.24,1.24,0,0,0-.64,0c-8.76,4.76-17.31-.14-25.94-.61-7.11-.38-13.9,0-19.15,5.62a9.44,9.44,0,0,0-2.43,3.57c-2.14,8.3-7.76,13.77-16,14.37-3.47.25-5.28,1.75-6.13,4.69-1.61,5.58-3.52,10.91-1.39,17.12,2.09,6-.53,12-3.39,17.48s-2.78,10.82-1.21,16.44c.23.84.26,2,.82,2.42,1.09.91,2.54,2,3.75,2a4.18,4.18,0,0,0,2.88-2.7c1.84-8.87,8.13-12.79,16.18-13.68A297.46,297.46,0,0,1,374.55,189c11.26-.07,22.55,1.32,33.79,1,14.74-.44,29.43-2.43,44.17-2.81,9.27-.24,18.61,1,27.87,2.07,6.82.78,11.27,4.9,13.79,11.41.84,2.19,3,3.86,4.8,6-3.11,1-3.67,4.28-4.17,8.09a97.88,97.88,0,0,1-3.68,15.78c-2.48,8.05-8.51,12.57-16.48,14.06-9.84,1.85-19.86,3.14-29.76.68a26.36,26.36,0,0,1-10.09-5.18c-5-4.09-6-6.07-9.16-10.21a33,33,0,0,1-2.72-4.54c-1.85-3.82-8.33-13.8-11.35-22.1-.79-2.18-1.79-2.18-3.79-2.18-1,0-2.32,1.39-2.77,2.72a67,67,0,0,0-2.94,11.92A48.88,48.88,0,0,1,392.49,239a23.28,23.28,0,0,1-9.4,6.63c-13.88,5.7-27.81,3.68-41.41-1.18a14.16,14.16,0,0,1-6.91-6.25c-3.08-6.42-5.22-13.29-7.66-20-.44-1.2-.09-2.85-.79-3.76-.94-1.23-2.57-2.7-3.86-2.65-1,0-2.84,2.12-2.89,3.35-.47,13.45-1.63,27,1.76,40.22,1.92,7.48,4.12,15.35,8.28,21.68,4.56,6.92,11.38,13.18,20.12,14.18,5.24.59,8.93,2.23,12,6.18.79-.56,1.63-.84,1.73-1.28,2.14-9.38,9.21-13.75,17.26-17.16,1.2-.51,2.35-1.13,3.54-1.67,7.48-3.1,6.48-3.1,13.48-6.1,1.75-.82,4.31-.15,6-1,2-1,4-3,5-2s7,1,8,0S419.2,268.33,420.78,269.13Zm-76.42,73.74c-.45.59-1,1-1.16,1.55-2.58,11.66-4.73,23.39-4.56,35.39a96.9,96.9,0,0,0,1.32,17.3A29.82,29.82,0,0,0,345.13,409c2.52,3.36,2.77,7,4.09,10.58,4.46,12,10,23.54,15,35.31,1.51,3.55,3.47,7.19,3.8,10.92a210.56,210.56,0,0,1,.54,24.1,25.12,25.12,0,0,0,3.31,13c3.37,6.28,6.16,12.87,9.39,19.23,1.56,3.06,3,6.46,5.46,8.75,9.12,8.64,18.61,16.9,28,25.26.24.21.82,0,1.65,0,.18-1.89.34-3.79.55-5.69,1-9.27,1.63-18.61,3.19-27.78,4.7-27.44,13.08-53.57,28.86-76.88,3.51-5.17,7-10.34,10.65-15.42s7.33-10.19,11.22-15.1c2.69-3.41,5.81-6.47,8.64-9.77,8.38-9.76,13-20.95,12.84-34-.1-12.73,0-25.46,0-38.4-.62.45-1.13.61-1.25.93-3.35,8.92-6.82,17.62-15.79,22.77-4.85,2.79-9.25,6.38-13.86,9.62-2.67,1.88-3.1,3.2-7.63,7.73-2,2-2,1-7,4a97.55,97.55,0,0,1-9,4,20.26,20.26,0,0,0-6,3c-.92.61,0,1-5,2-7,2-4.49,1.59-11,3-3.28.71-11,0-15-1a47.26,47.26,0,0,1-11-4,72.55,72.55,0,0,1-9-5c-5.31-3.54-8.76-8.82-13.41-12.87-8-7-16.66-13.34-21.34-23.38C345.79,343.5,345,343.29,344.36,342.87Zm91.43-3.69c8.3-4.38,10-6,15-9,1-.6,5.58-5.58,6-7,1.18-3.91,5-7,4.1-11.66-.84-4.27-1.1-6.35-2.1-7.36-2.9-2.9-5-3-8-4-1.56-.52-4.44-1.33-6.1-1.66a119.44,119.44,0,0,0-36.33-1.2,62.39,62.39,0,0,0-13.61,2.86c-2.12.71-11.09,2.85-13,4-5,3-5,5-6.27,8.32-.74,1.69-1.61,3.49.6,5.88a35.6,35.6,0,0,1,6.49,8.83c2.4,5.22,7.58,8.51,12.19,11,3.09,1.67,3,2,7,4,4,1,5,2,10,2h8c4,0,4.85-.34,9-2C433.79,340.18,432.79,340.18,435.79,339.18ZM398,193c-.26.09-.25.54-.26,1.09.86.61,2,1.73,2.8,2.4,4.21,2.61,10.77,2.09,14.22-.39a34.8,34.8,0,0,1,4-2s0-.56,0-1-7-1-11-1S399.86,192.27,398,193Z" transform="translate(91.44)"/><path d="M651,75c1.85,2.21,4.79,4.93,6.19,7.4,1.88,3.31,4.17,3.41,7.05,1.89,3.26-1.73,2.4-4.32,1-6.69-2.68-4.71-5.61-9.29-8.36-14-.72-1.22-1.35-3.34-1.93-4.65.37-.26,1.63-1.73,2-2,2,2,1.54,4.63,2.32,6.15C664.52,73.3,673.77,78.33,683.9,82c5.05,1.81,9.11-.57,12-5.9C688.77,72.13,687,64,683,58c.36-.23,1.63-1.77,2-2,3,3,2.41,5.36,3.54,7.12,5.26,8.23,14.27,10,22,4.26,4-3,4.47-5.77,1.86-10a44.34,44.34,0,0,1-4.15-8c-1.64-4.54-1.45-4.61,3.92-6.58,1.17,2.48,2.51,4.91,3.46,7.48s2.26,4.86,1.2,8.06c-.71,2.15.43,5,1,7.46.29,1.2,1.45,2.17,1.86,3.37.68,2,1.08,4.1,1.59,6.16-2-.09-4.07-.57-6-.17a8.68,8.68,0,0,0-4.62,2.69c-1,1.18-1,3.15-1.55,5.4-4.86-3.76-8.45-1.42-11.56,2-4.32,4.69-10.66,4.45-15.86,6.93A58.92,58.92,0,0,0,672,98c-.74.55-.61,2.81-.29,4.15,2.75,11.47.91,14.35-10.59,13.26A73.42,73.42,0,0,1,644,112c-.38-.14.25-1.47,0-2,.72-.3,2.11-1.45,3-1,2,1,6.75,1,10.44,3.09a12.68,12.68,0,0,0,5.61,1.39c2.66.1,5.61-3,4.54-5.06-2-3.74-4-8.49-7.37-10.24-5.57-2.91-8.46-6.8-8.93-12.55C651,82,648,78,648,77,648.58,76.61,650.36,75.33,651,75Z" transform="translate(91.44)"/><path d="M718,114c-1.85.48-4,0-6,0,.17-1.06-.32-3.76,0-4a42.74,42.74,0,0,0,5.23-5.55c3-3.54,5.24-7.4,3.8-12.5-.46-1.64.23-3.61.4-5.43,1.63.3,3.51.19,4.86,1,5,2.85,10.32,1.51,15.3,1.14,2.51-.19,5.11-3.64,7-6.1,4.55-5.77,8.72-11.84,13.08-17.76a7.12,7.12,0,0,1,1.72-1.18c.28.75.82,1.48.64,1.77q-4.7,7.5-9.55,14.9c-2.47,3.75-5,7.43-7.56,11.15-3.56,5.26-7,10.57-14.72,9.81-.8-.08-1.75,1.46-2.63,2.25.82.61,1.56,1.55,2.47,1.75,3,.67,6,1,9,1.58,2.11.44,4,1.66,2.77,4.06-2.39,4.54,0,8,2.14,11.48,1.26,2.1,2.91,3.67-.05,6-2.27,1.76-.57,3.93.77,5.68,1.5,2,4.94,4.31,2.4,6.38-3.11,2.52-4.41-2-6.25-3.71-1.22-1.15-1.72-3-2.88-4.29-4.35-4.76-6.35-6.76-11.35-12.76" transform="translate(91.44)"/><path d="M797.86,219.09c-2.81-6.16-5.59-12.33-8.44-18.47-.73-1.55-1.75-3-2.54-4.49-3.06-5.9-6.12-11.81-9.06-17.77-.28-.58,0-2.11.42-2.26,1.33-.52,3.22-1.32,4.19-.76,5.08,2.92,10.3,6.08,11.92,12.22,1.86,7.09,3.37,14.3,4.62,21.53.56,3.23.09,6.63.09,9.95Z" transform="translate(91.44)"/><path d="M635.81,79.9C639,82,640,82,642.71,84.52c2,1.84,4.71,8.26,3.55,11.11-1.3,3.22-4.83,4.55-8.64,3.41-6.52-2-11.51-5.05-11.21-13,.08-2.08-.82-4.2-1.51-7.4Z" transform="translate(91.44)"/><path d="M772.92,170.83a15.25,15.25,0,0,1-2.33-1.74C765.35,163,760.11,157,755,150.84c-.58-.71-.53-1.94-.77-2.93,1.15.13,2.48-.06,3.42.45a36.54,36.54,0,0,1,7.63,4.87,141.17,141.17,0,0,1,11,11.69c.54.62.11,2.53-.45,3.51S773.94,170,772.92,170.83Z" transform="translate(91.44)"/><path d="M415.37,308a77.79,77.79,0,0,1,9.16.54c3.05.52,3.44,2.1,1.56,4.48a24.3,24.3,0,0,0-2.71,3.5c-2.16,4.22-3.41,4.79-7.28,2.62a98,98,0,0,1-9.37-5.72,4.78,4.78,0,0,1-2-3.23,6.78,6.78,0,0,1,3.56-2.11A57.46,57.46,0,0,1,415.37,308Z" transform="translate(91.44)"/><path d="M815.63,247.76c-3.38-6.36-8.13-11.95-10.48-18.91-.88-2.6-2.8-4.23-5.83-3.93" transform="translate(91.44)"/><path d="M796.71,219.7c.44-.65,1.39-1.49,1.23-1.93-1.8-4.92-.88-10.66-4.49-15" transform="translate(91.44)"/><path d="M698.85,314.3c-2.77.27-3.65,2.43-4.56,4.57" transform="translate(91.44)"/><path d="M684.5,86.62c7.93.41,12.5-4.42,16.31-10.44" transform="translate(91.44)"/><path d="M714.51,68.35a24.06,24.06,0,0,0-3.42-19.46c-2.24-3.35.13-4.23,1.46-6" transform="translate(91.44)"/><path d="M762.79,63.13c.22.65.82,1.66.59,1.9A49.34,49.34,0,0,0,756,75.4c-3.21,5.93-8,11-12.2,16.4-.74.93-2.13,1.34-3.21,2" transform="translate(91.44)"/><path d="M500.53,206l-7.83,1.31" transform="translate(91.44)"/><path d="M736.69,309.73c-5.33,1.76-11.35.59-16.31,3.91-2.36,1.57-4.78,3.05-7.17,4.57" transform="translate(91.44)"/><path d="M667.21,100.32l2.29,4.56c2.42,4.85-.46,10.23-5.88,10.32a13.75,13.75,0,0,1-7.09-2,6.34,6.34,0,0,0-5.35-.76c-1.25.25-3-1.93-4.52-3" transform="translate(91.44)"/><path d="M755.61,149.25c3.74,4.52,8.74,7.69,12.72,12.1a20.33,20.33,0,0,1,4.9,10.08" transform="translate(91.44)"/><path d="M740.61,127.06c1,5.32,4.71,9,7.83,13.05" transform="translate(91.44)"/><path d="M307.42,345c-.21,1.74-.43,3.48-.65,5.22" transform="translate(91.44)"/><path d="M594.47,339.09l9.79,5.87" transform="translate(91.44)"/><path d="M454.86,69.65c-2.17-.21-4.5,0-6.48-.75-2.89-1.07-5.06-.32-7.22,1.41" transform="translate(91.44)"/><path d="M131.28,481.31l-7.83-.65" transform="translate(91.44)"/><path d="M480.31,115.32c-.44,2.61-.87,5.22-1.31,7.83" transform="translate(91.44)"/><path d="M485.52,86.62c-.43,2.61-.87,5.22-1.3,7.83" transform="translate(91.44)"/><path d="M347.87,135.55,340,134.24" transform="translate(91.44)"/><path d="M439.21,63.13,438.55,71" transform="translate(91.44)"/><path d="M512.27,258.85c2,4.46,4.22,8.93-.65,13" transform="translate(91.44)"/><path d="M725,112.06h-7.83" transform="translate(91.44)"/><path d="M741.26,124.45l7.18,2" transform="translate(91.44)"/><path class="cls-2" d="M649.93,76.83c1.74.12-17.06-16.4-25.45-7.17-1,1.42-1,7.21-2.61,6.52-14.42-4.84-16.51-17.39-15-30.66,4.26-10.82,23-15,29.35-22.84,0,0,8.62-12.39,13-14.35,3.58-1.58,11.2.24,15-.65,11.42-6.3,8.21-5.1,20.87-2.61,3.65-.13,10.75-1.87,14.36-1.31,6.56,1.59,6.71,6.15,13,10.44,1.77.91,8.77,2.85,10.44,3.92,16.58,12.41,5.59,6.61,23.49,20.87,6.52,5.22,10.44,6.53,15.66,15.66,6.22,10.9,17,26.1,27.4,35.23,74.85,70.6,95,86.47,147.44,151.35,10,14.63,27.39,52.19,31.31,62.63.9,2.42-.25,7-1.31,9.13-9,15.57-14.65,25.28-22.18,35.23-1.91,3-9.13,10.44-9.13,10.44-8.48,2.9-12.57,4.84-15,15l-27.55.44-39.69-45.2-29.31-51.8-46-102-57-63-52.93,1.35-3.07-18.35Z" transform="translate(91.44)"/><path class="cls-3" d="M636.23,30.51s-10.16,7.91-11.75,11.74c-.75,1.81-.41,7.22,0,9.14.93,4.34,5.22,15.66,5.22,15.66" transform="translate(91.44)"/><path class="cls-4" d="M622.53,76.83s2.28,8.09,2.6,10.44c.46,3.23.13,11.31,1.31,14.35.33.86,4.44,3.43,5.22,3.92A60.32,60.32,0,0,0,646,112.06c5.23,1.55,16.22,4.11,21.59,3.15,17.55-3.15,46.26-3.15,46.26-3.15" transform="translate(91.44)"/><path class="cls-3" d="M659.06,18.12s-5.7,19.42-6.53,26.09c-.23,1.94-.56,6,0,7.83s3.92,6.52,3.92,6.52" transform="translate(91.44)"/><path class="cls-3" d="M682.54,12.9s-1.92,22.51-2.6,30c-.18,2-.57,6,0,7.83.68,2.25,5.21,7.82,5.21,7.82" transform="translate(91.44)"/><path class="cls-3" d="M709.94,19.42s0,10.44-1.3,23.49c-.13,1.3-5.22,0-5.22,0" transform="translate(91.44)"/><path class="cls-3" d="M721.69,23.34a110.8,110.8,0,0,1-3.92,10.43c-1.32,2.48-8.25,9.67-8.25,9.67" transform="translate(91.44)"/><path d="M761,154c3.74,4.52,8.74,7.69,12.72,12.11" transform="translate(91.44)"/><path d="M609.48,49.43a5.2,5.2,0,0,1,1.95-1.17,6.07,6.07,0,0,1,3.92,0,5.34,5.34,0,0,1,2,1.18,5.21,5.21,0,0,1-2,1.18,6.16,6.16,0,0,1-3.92,0A5.37,5.37,0,0,1,609.48,49.43Z" transform="translate(91.44)"/><path d="M630.35,49.43a15,15,0,0,1,3.92-1.17,23.74,23.74,0,0,1,7.83,0A15,15,0,0,1,646,49.43a14.58,14.58,0,0,1-3.91,1.18,24.11,24.11,0,0,1-7.83,0A15.41,15.41,0,0,1,630.35,49.43Z" transform="translate(91.44)"/><path d="M656.45,50.74a17.28,17.28,0,0,1,4.15-1.5,28.37,28.37,0,0,1,8.48-.66,17.29,17.29,0,0,1,4.33.85,17.13,17.13,0,0,1-4.15,1.5,27.87,27.87,0,0,1-8.48.65A17.26,17.26,0,0,1,656.45,50.74Z" transform="translate(91.44)"/><path d="M685.15,46.82a15.22,15.22,0,0,1,3.82-1.5,24.68,24.68,0,0,1,3.89-.65,23.56,23.56,0,0,1,3.94,0,14.69,14.69,0,0,1,4,.85A15,15,0,0,1,697,47a22.71,22.71,0,0,1-3.89.64,23.56,23.56,0,0,1-3.94,0A15.46,15.46,0,0,1,685.15,46.82Z" transform="translate(91.44)"/><path d="M668.19,71.61a18.71,18.71,0,0,1,3.9-2.43,31.64,31.64,0,0,1,4.14-1.61,30.36,30.36,0,0,1,4.34-1,18.79,18.79,0,0,1,4.58-.18,18.24,18.24,0,0,1-3.89,2.43,30.21,30.21,0,0,1-8.48,2.61A18.85,18.85,0,0,1,668.19,71.61Z" transform="translate(91.44)"/><path d="M693,63.78a14.64,14.64,0,0,1,3.19-2.41,22.73,22.73,0,0,1,7.17-2.61,14.28,14.28,0,0,1,4-.2A14.38,14.38,0,0,1,704.15,61a21.85,21.85,0,0,1-3.48,1.6,22.2,22.2,0,0,1-3.7,1A14.19,14.19,0,0,1,693,63.78Z" transform="translate(91.44)"/><path d="M651.23,75.53a8.32,8.32,0,0,1,2.32-1.8,11.52,11.52,0,0,1,2.54-1,11.31,11.31,0,0,1,2.68-.35,8.09,8.09,0,0,1,2.9.5,8,8,0,0,1-2.33,1.79,11.13,11.13,0,0,1-5.22,1.3A8,8,0,0,1,651.23,75.53Z" transform="translate(91.44)"/><path d="M617.31,70.31a3.57,3.57,0,0,1,1.3-1.18,2.87,2.87,0,0,1,1.31-.32,2.83,2.83,0,0,1,1.3.32,3.5,3.5,0,0,1,1.31,1.18,3.59,3.59,0,0,1-1.31,1.18,2.83,2.83,0,0,1-1.3.32,3,3,0,0,1-1.31-.33A3.53,3.53,0,0,1,617.31,70.31Z" transform="translate(91.44)"/><g class="cls-5"><path d="M637.68,753.25c.1-4.76.07-9.53.35-14.28.22-3.89.3-7.11-4.62-8.52-4.52-1.3-6-5.71-6.22-9.84a69.7,69.7,0,0,1,1.22-14.75c.84-4.79,1.75-9.43-.51-14-.43-.87-1.29-2.05-2-2.1a3.38,3.38,0,0,0-2.39,1.71c-2.54,4.54-5,9.13-7.31,13.78-1.81,3.63-1.08,7.38.72,10.67,3.61,6.57,3.88,13.5,3.74,20.78-.13,6.18-2.78,11.25-5.14,16.56H195.36c.6-3.18,1.07-6.4,1.82-9.54,2.37-9.93,4.72-19.83,3.92-30.2a61.48,61.48,0,0,1,.19-10.42c.86-9.51-1.62-18.66-3.91-27.58-3.82-14.83-9.13-29.27-13.5-44-1.23-4.11-1-8.64-2.09-12.81-4-15.47-10.1-30.29-12.91-46.14a189,189,0,0,0-8.17-30C155.16,527,153,510,142.28,496.41c-.78-1-.88-2.47-1.52-3.59a30.31,30.31,0,0,0-3.51-5.42c-4.07-4.52-8.28-8.92-12.56-13.25a18.51,18.51,0,0,0-4.63-3.48c-10.32-5.28-19.57-13.07-31.91-13.66a10.28,10.28,0,0,1-1.83-.65c-3.34-.81-6.68-1.62-10-2.35-2.32-.51-4.83-.49-7-1.39-6.16-2.57-12-5.85-18.28-8.2A299.94,299.94,0,0,1,11.77,425.8q-13.65-7.51-27.39-14.86c-7-3.75-14.09-7.53-21.32-10.92-2.18-1-5-1.1-7.47-1-4.8.16-9.63.73-14-1.91-7.39-4.52-14.88-8.92-22-13.86-5.42-3.77-8.73-9.31-11.08-16.54,4,.3,7.17.72,10.35.73a118.5,118.5,0,0,0,12.92-.59,8,8,0,0,0,4.46-2.3c3.48-3.55,6.63-7.42,10-11.05,7.26-7.77,14.22-15.86,22-23.1,10.31-9.61,16.64-21.57,22.23-34.12a9.23,9.23,0,0,0,.39-2.22c-.62-.17-.89-.33-1-.26a4.49,4.49,0,0,0-1.51,1c-5.43,8-13.59,11.87-22.22,15.07-1.55.57-3.77.49-3-1.67,1.09-3.2,2.56-7.82,5-8.68,4.07-1.45,4.45-4.49,6.28-7.16a24.75,24.75,0,0,1,7.35-7,16.89,16.89,0,0,0,7.73-10.81c1.42-5.42,2.21-11,4-16.3,2.72-7.8,5.7-15.61,14.56-18.9a10.17,10.17,0,0,0,4.4-3.68c3.47-5,6.62-10.17,10-15.23a10.34,10.34,0,0,1,3-3.29c.9-.54,2.33-.19,3.53-.23,0,1,.33,2.19-.05,3-1.32,3-3.06,5.75-4.31,8.74-3.88,9.35-10.59,17.34-12.78,27.56-.64,2.94-3.5,5.35-5,8.19-.79,1.51-1.67,3.88-1,5,.88,1.58,3.4,3.55,4.83,3.28,6.2-1.14,10.79,2.14,14.77,5.51,8.13,6.88,18,10.26,27.24,14.87,3.34,1.67,6.6,3.88,10.71,1.28,1.22-.77,3.41-.19,5.12,0,6.88.81,12.65,4.4,18.28,8,4.58,2.93,17.13,7.83,24.35,8.21l-18.42-7.76c7.68-2.92,13.87-1.28,19.69.85,5,1.83,9.81,3,15.16,1.2a17.67,17.67,0,0,0,.84,4.19c.17.38,2.33.27,2.33.22.64-5.13,3.56-3.28,6.05-1.88,5.62,3.15,11.11,6.52,16.73,9.67,2,1.14,4.25,2.62,6.44,2.71,8.24.32,16.4.93,24.44,2.9,1.24.31,2.62,0,3.9.18,6.35.94,12.7,1.91,19,3a3.9,3.9,0,0,1,2.16,1.37c3.81,4.74,8.38,3.41,13.07,1.83,1.52-.52,3.89-1.39,4.6-.73,1.1,1,1.12,3.22,1.62,5a8.38,8.38,0,0,1,1.67-.89c1.33-.4,2.7-.67,4.06-1-.53,1.44-.66,3.28-1.65,4.24-3.68,3.54-7.64,6.79-11.49,10.15a11.94,11.94,0,0,0,6.22-2.57c4-2.91,7.67-6.56,12.06-8.7,3.86-1.89,7.78-3.27,11.08-6.31,3.07-2.83,6.1-1.45,7,2.75a36,36,0,0,1,.4,4.54,9,9,0,0,0,4.1,7.26c.83-3.42,1.25-6.64,2.4-9.56,1.38-3.49,6.39-4.23,8.49-1.23,1,1.44.74,3.78,1,5.64,4.72-2.91,11.64-2.32,15.32-8,.17-.26.83-.17,1.24-.31,4.49-1.57,8.95-3.21,13.46-4.73,5.87-2,11.26-5.26,12.08-11.54.91-7,.13-14.25-.23-21.38-.21-4-1.3-8-1.54-12.05-.37-5.85.61-11.94-.75-17.5-1.16-4.74,1-6.71,3.26-9.37.44,1.67-.08,3.2.19,4.59.18,1,1.44,2.42,2.21,2.42,4.32,0,6.45,2.94,8.94,5.68a6.22,6.22,0,0,0,4.1,2.07c4.77-.15,7.36,2.88,9.92,6.06,2.69,3.36,5,7.09,7.95,10.16,6.95,7.18,7.93,6.87,11.3-2.44,2.44-6.74,13.4-15.16,20-14.08,4.55.73,8.07-.81,11.85-2.15,4.26-1.51,4.5-2.43,2-6.4-1.14-1.79-2.09-3.4-.28-5.21,3.38-3.38,13-2.85,15.59,1.12,1.47,2.24,2.77,2.47,4.73,1.06,6.69-4.8,13.65-4.61,20.79-1.13,1.71.83,3.44,1.62,5.19,2.44-4.51,6.91-3.69,9.48,3.85,12.89,1.19.54,2.34,1.16,3.54,1.67,8.05,3.41,15.12,7.78,17.26,17.16.1.44.94.71,1.73,1.28,3.09-3.95,6.78-5.59,12-6.19,8.74-1,21.39-8.83,26-15.74,3-6,3-4,4-11,1.93-13.49.68-35.88.21-49.33-.05-1.22-1.85-3.31-2.89-3.35-1.29,0-3.94-.06-5.32.63-4,2-5.57,2.8-6,4-2.43,6.7-1.94,15.61-5,22-1.28,2.67-7.22,9-10,10-13.57,4.84-20.44,2.89-34.29-2.81a23.23,23.23,0,0,1-9.4-6.62,48.93,48.93,0,0,1-9.57-23.24,67,67,0,0,0-2.94-11.92c-.45-1.33-2.25-2.57-3.7-3-.65-.21-2.41,1.38-2.86,2.49-3.28,8-11.19,13.81-11,23.43,0,.35-.4.75-.69,1.07-3.76,4.17-7.21,8.72-11.43,12.37a25.42,25.42,0,0,1-10.2,5.16c-9.9,2.46-19.92,1.17-29.76-.68-8-1.5-14-6-16.48-14.07a97.64,97.64,0,0,1-3.68-15.78c-.5-3.8-1.06-7.06-4.17-8.08,1.77-2.15,4-3.82,4.81-6,2.51-6.51,7-10.63,13.78-11.41,9.26-1.07,18.6-2.31,27.87-2.07,14.74.37,29.43,2.37,44.17,2.81,11.24.33,22.25,5.28,33.52,5.35,10.39.07,13.69.86,24,2,8.05.89,9.48,2.48,14,7a11.36,11.36,0,0,0,8,3c2,0,4,0,5-1s1-6,1-8c0-6,.84-3.61-2-9s-1.68-14.42.41-20.47c2.13-6.2.22-11.53-1.39-17.11-.85-2.95-2.66-4.44-6.13-4.69-8.22-.6-13.84-6.07-16-14.37a9.47,9.47,0,0,0-2.43-3.58c-5.25-5.65-12-6-19.15-5.61-8.63.47-17.18,5.37-25.93.61a1.4,1.4,0,0,0-.65,0c-9.33.47-18.65,1.13-28,1.32a48,48,0,0,1-13.4-1.24c-8.8-2.37-17.38-5.5-26.06-8.28-5.87-1.89-5.72-1.71-9.82,2.61-1.82,1.92-4.36,4.3-6.65,4.39-4.16.16-4.57,2.34-4.86,5.36-.52,5.35-1,10.71-1.7,16a25.11,25.11,0,0,1-1.43,4.29c-.93,2.82-2.22,5.58-2.68,8.48-.65,4.07-1.91,7.54-5.53,9.85-3.38,2.17-4.56,5.39-5.13,9.31-.78,5.33-2.27,10.57-3.55,15.82-.44,1.83-.74,4.54-3.33,3.88-1.79-.46-4.24-2.26-4.56-3.84-.78-4-3-5.88-6.46-7.2-.76-.29-1.22-1.34-2.69-3.07,5.2,1.15,9.26.46,10.66-3.28,1.88-5,2.57-10.47,3.55-15.78.43-2.33-.32-5,.56-7.09,2.73-6.48,2.64-13.23,2.28-19.91A77.62,77.62,0,0,1,327,105.34c2.2-8.89,4.29-17.53,12.72-23.13a15.1,15.1,0,0,1,8.84-2.94c2.91,0,6.21-.47,8.65-1.91a49.67,49.67,0,0,0,11.75-9c3.29-3.63,6.67-4.39,11-3.42.46.1,1.05-.36,2.63-1l-6.66-1.73c4-1.88,7.11-3.44,10.29-4.76a10.44,10.44,0,0,1,4.94-1.12c9.37,1.25,18-1.88,26.78-4.14,2.43-.63,5.46-1.24,7.59-.35,6.34,2.64,12.76,2.28,19.25,1.71A14.91,14.91,0,0,1,457.15,58c2.44,2.34,5.55,4,8.45,5.86,3.41,2.18,7,4.15,10.37,6.33,1.44.93,2.55,2.94,4,3.15,8.19,1.17,13.57,5.85,17.92,12.55,1.71,2.65,4.71,4.44,7,6.74a12.83,12.83,0,0,1,2.71,3.58c2.72,6.09,5.33,12.24,7.88,18.4.82,2,1.88,4.09,1.93,6.16.27,10.85-10,21.43-8.59,32.23,1.23,9.3,2,19,4,28,.36,1.66,1.7,4.35,2,6,.58,3.25-1,5-1,8,0,4.91-1.27,8.9.16,14,.84,3,.52,6.48.24,9.7-1,11.44.28,22.88-.4,34.33-.45,7.4,0,6,1,14,.07.14-6,8.43-6.07,8.64q-4.11,13.56-8.24,27.11c-.7,2.27-1.52,4.51-2.38,6.72-1.49,3.85-.93,7.16,2.08,10.13,6,5.92,11.87,12,17.88,17.87a5.91,5.91,0,0,0,2.86,1.16c12,2.5,20.62,9.29,26.63,19.85,1.56,2.75,3.37,5.9,5.93,7.44,7.94,4.76,16.25,8.89,24.48,13.14,3.41,1.76,7.22,2.85,10.41,4.91,5.41,3.51,10.48,7.55,15.68,11.39a14.85,14.85,0,0,1,2.43,2.1c3.93,4.57,9.58,6.14,15.54,5.11,2.4-.41,5,.81,7.61,1.08s2.18,1.9,1.9,3.65c0,.26.93.8,1.5,1,8.14,2.84,16.08,6.31,24.88,7,3.6.26,7.74.59,10.57,2.48a47.1,47.1,0,0,1,15,15.94c3.27,5.77,5.77,11.87,10.17,17.17,4.6,5.56,7.56,12.5,11.14,18.89a8.08,8.08,0,0,1,1.14,3.69c.16,8.05,3.55,15.05,6.64,22.22,3.38,7.87,8.22,15.39,6.74,24.69a12.13,12.13,0,0,0,1,5.72c1.93,5.28,4,10.53,6.22,15.68a51.55,51.55,0,0,0,4.94,9c3.75,5.28,6.13,10.64,5.57,17.48a49.74,49.74,0,0,0,1.51,15.48c4.53,18.73,9.38,37.39,14.32,56,2.2,8.27,3.26,16.52,2.12,25.06a30.92,30.92,0,0,0,.23,7.8q1.86,15.15,3.94,30.25c.49,3.63,2.46,5.66,6.41,6.07,5.75.59,5.36.92,3.56,6.36-1.38,4.17-1.27,8.84-1.74,13.3-.38,3.56,3.16,3.65,4.9,5.34.3.3.73.69.72,1-.2,6.06,4.57,12.06.26,18.18Zm-154-416.56c-4.68,10-13.31,16.39-21.34,23.38-4.65,4.05-9.16,8.24-12.57,13.63-1.87,3-5.41,4.92-8.35,7.12-3.82,2.85-7.93,5.32-11.65,8.29-2.67,2.14-5.16,2.32-8.44,1.61-6.51-1.41-13.15-2.35-19.78-3.14-4.75-.57-6.23-1.84-5.19-6.6.58-2.69.09-4.13-2.42-5.06-1.62-.6-3.14-1.5-4.77-2.1-7.05-2.6-7.05-2.57-11.43-9.63-.34,1.45-.31,2.48-.79,3.14a15.87,15.87,0,0,1-2.58,2.3c-.43-.93-1.33-1.92-1.2-2.76.63-4.11-2.26-5.79-4.93-7.67-4.61-3.24-9-6.83-13.86-9.62-9-5.16-12.44-13.86-15.79-22.77-.12-.32-.63-.49-1.25-.93,0,12.94.08,25.67,0,38.4-.11,13,4.46,24.21,12.84,34,2.83,3.3,5.95,6.36,8.64,9.76,3.89,4.92,7.58,10,11.22,15.1s7.14,10.26,10.65,15.43c15.78,23.31,24.16,49.43,28.86,76.87,1.56,9.18,2.16,18.52,3.19,27.79.21,1.89.37,3.79.55,5.69.83,0,1.41.18,1.65,0,9.38-8.37,18.87-16.62,28-25.27,2.42-2.29,3.9-5.68,5.46-8.74,3.23-6.36,6-13,9.39-19.24a25.06,25.06,0,0,0,3.31-13,210.56,210.56,0,0,1,.54-24.1c.33-3.73,2.29-7.37,3.8-10.93,5-11.77,10.59-23.33,15.05-35.3,1.32-3.54,1.57-7.22,4.1-10.58a30,30,0,0,0,5.16-11.87,96.9,96.9,0,0,0,1.32-17.3c.17-12-2-23.74-4.56-35.4-.12-.53-.71-1-1.16-1.54C484.62,336,483.84,336.22,483.63,336.69Zm-78.42-2.37c-.63,2.8,1.08,4,3.8,3s5.1-2.33,7.77-3.09c5.35-1.51,5.38-1.39,9.46,1.28,3.33-1.93,6.33-3.77,9.42-5.44,4.61-2.5,9-5,11.4-10.17a35.84,35.84,0,0,1,6.49-8.84c2.21-2.38,1.86-3.82-.4-5.87-5.66-5.12-12.5-7.68-19.64-9.73-1.61-.46-4.15-.62-4.62-1.66-1.62-3.62-4.7-3.47-7.63-3.8-12.12-1.36-24.24-2.15-36.33.21a13.25,13.25,0,0,0-4.83,1.65,77.23,77.23,0,0,0-9.88,7.42,6.25,6.25,0,0,0-1.5,5A108.83,108.83,0,0,0,372,316.05c.43,1.43.73,3.51,1.75,4.06,7,3.76,12.61,9.72,20.42,12.17,4.54,1.44,6.94-.66,8.88-4.69C406.39,329.7,405.76,331.83,405.21,334.32Zm16.55-149.56c-.88,0-2.57.93-2.56,1.4a5,5,0,0,0,1.42,3.18c3.38,3.24,6.61,3.1,10.45-.16.8-.68,1.7-1.23,2.56-1.84l0-1.66C429.66,185.35,425.72,184.92,421.76,184.76Z" transform="translate(91.44)"/></g><path d="M321.7,270.13a38.31,38.31,0,0,1-3.5,2.5c-.9.45-4.3-.29-5-1-2-2-2.59-4.46-3-7-.36-2.23-.63-8.77-1-11-1-6-5-9-6-15-.48-2.89-2-6.24-3-9a52.29,52.29,0,0,1-2-8c-1-5-1-5-1-9,0-1.52-1.5-6.51,0-8,2.5-2.5,7.19-.09,9,1,2.5,1.5,9.5-.5,9.5-.5" transform="translate(91.44)"/><path d="M509.8,196.87s3.42-5.34,5.6-6.62c1.59-.94,5.44-.78,7.12,0,2.38,1.1,4.79,6.33,5.09,8.14a73.29,73.29,0,0,1-.51,22.9c-.59,2.68-2.23,3.59-3.05,6.11-.75,2.27-.22,11.43,0,14.25a79,79,0,0,1,0,13.23c-.33,2.25-1.23,4.93-3.06,6.1a7.12,7.12,0,0,1-6.1,0c-2.11-1.15-1.53-8.65-1.53-8.65" transform="translate(91.44)"/><path d="M395.84,239.29c.68,1.42,2.33,3.35,1.88,4.19-3.74,7-7.87,13.82-11.88,20.68l-3-1.6L396,239.16Z" transform="translate(91.44)"/><path class="cls-6" d="M396.1,242.82,383,265" transform="translate(91.44)"/><path d="M428.13,238.69c-.68,1.42-2.32,3.35-1.88,4.19,3.75,7,7.87,13.82,11.88,20.68l3-1.6L428,238.56Z" transform="translate(91.44)"/><path class="cls-6" d="M427.87,242.22,441,264.35" transform="translate(91.44)"/><g class="cls-7"><path d="M318.81,236.19c-1.55,14.66,3.2,28.16,10.37,40.2,3.5,5.89,11.23,10.18,18,13.05,7.48,3.18,16.25,7.56,22.26-4.27,1.85-3.66,8.7-4.61,13.19-6.77,8-3.87,6.84-11.78,5.32-14.21-.68-1.09,13.23-7.48,22-4.36,2.43.86,5.51,0,8.28-.17,3.66-.18,7.47-1.35,11-.48,2.26.57,6.7.57,4.91,8.29-.25,1,0,3.82.87,4.29a23.38,23.38,0,0,0,9.8,3c13.69.58,21.29,5.51,24,14.94.5,1.77,1.55,3.38,3.31,7.09,5.36-5.5,10-9.81,14.06-14.57,3.38-4,6.25-7.55,12.17-8.64,3.37-.63,6.17-5,8.94-7.93,1.75-1.86,3-4.23,4.75-6.87,2.93,3.11,4.64,5.56,4.14,10.47-1.67,16.26-2.83,32.61-3,48.94-.08,8.5,7.33,12.08,15.83,15h-79.7c.25-1,.21-2,.54-2.16,8.35-3.56,8.37-11.67,9.26-18.56.35-2.72-3-7.4-5.91-8.74-6.95-3.27-14.45-6.37-22-7.19-8.74-1-17.75.59-27.21,1.09.46,2.33.71,3.64,1,5.22a20,20,0,0,0-2.73.48c-7.89,2.62-15.91,4.94-23.6,8.07-3.84,1.56-4.5,4.59-1.25,8.29s5.7,8.12,9.23,13.27H324c.13-.49.08-1.6.58-1.94,9.76-6.77,5.47-14.79,2.55-23.05-3-8.47-7.47-17.28-7.21-25.83.47-15.72-6-30.37-5.08-45.91Z" transform="translate(91.44)"/><path class="cls-6" d="M461.15,328.63,448,332.54" transform="translate(91.44)"/><path class="cls-6" d="M406.05,302.59l-7.87-2.6" transform="translate(91.44)"/></g><path class="cls-8" d="M20.08,893.27A34,34,0,0,1,6.45,877.38Q2,867.11,2,853.13,2,837,7.69,826.62t14.86-15.07a43.35,43.35,0,0,1,20.14-4.73,54.91,54.91,0,0,1,15.41,2.06,55.3,55.3,0,0,1,13.5,6l-5.48,9.59a42.34,42.34,0,0,0-22.88-6.71q-14.25,0-21,9.32t-6.78,25.34q0,16.57,7.12,26t21,9.45a41.46,41.46,0,0,0,12.6-1.78,54.65,54.65,0,0,0,11.24-5.07l5.07,9.18a69.73,69.73,0,0,1-14.18,6.44A50.46,50.46,0,0,1,43,898.88Q29.26,898.88,20.08,893.27Z" transform="translate(91.44)"/><path class="cls-8" d="M97.21,893.06a36.37,36.37,0,0,1-14-16.23q-4.73-10.41-4.72-24.25,0-15.35,5.75-25.62a36.77,36.77,0,0,1,15.34-15.21,45.73,45.73,0,0,1,21.24-4.93q13.29,0,22.6,5.82a36.47,36.47,0,0,1,14.05,16.24q4.73,10.41,4.72,24.25,0,15.35-5.75,25.62A36.71,36.71,0,0,1,141.05,894a45.69,45.69,0,0,1-21.23,4.93Q106.53,898.88,97.21,893.06Zm38.84-9.31a26.88,26.88,0,0,0,9.73-12.27A47.44,47.44,0,0,0,149,853.26a52.09,52.09,0,0,0-3.08-18.7A26.84,26.84,0,0,0,136.53,822q-6.3-4.53-15.75-4.52-9.73,0-16.24,4.45a26.83,26.83,0,0,0-9.72,12.26,47.51,47.51,0,0,0-3.22,18.22,52,52,0,0,0,3.08,18.7,26.9,26.9,0,0,0,9.38,12.54q6.3,4.52,15.76,4.52Q129.54,888.2,136.05,883.75Z" transform="translate(91.44)"/><path class="cls-8" d="M252.43,808.46v88.78h-14l-39-57.54-1.79-2.6a28.24,28.24,0,0,0-1.71-2.61c-1-1.37-1.78-2.64-2.46-3.83s-1.31-2.38-1.85-3.56v70.14H179.55V808.46h13.29L233,867.24c.36.55,1.14,1.66,2.33,3.35s2.19,3.25,3,4.66a37.77,37.77,0,0,1,2.06,4V808.46Z" transform="translate(91.44)"/><path class="cls-8" d="M282,896.21a47.12,47.12,0,0,1-14.25-7.46l6-9a38.3,38.3,0,0,0,12.4,6.38,44.79,44.79,0,0,0,13.08,2.12q9.85,0,15-3.56c3.42-2.38,5.14-6,5.14-10.83a12.22,12.22,0,0,0-1.85-7,16.63,16.63,0,0,0-6-5,85.69,85.69,0,0,0-12-5l-2.33-.83a91.68,91.68,0,0,1-14-6,24.71,24.71,0,0,1-8.63-7.74,20.82,20.82,0,0,1-3.29-12,20.18,20.18,0,0,1,4.18-13,25.14,25.14,0,0,1,11-7.88,41,41,0,0,1,14.66-2.6,57.38,57.38,0,0,1,15.55,2.06,50.18,50.18,0,0,1,14.31,6.71l-5.75,9a47.71,47.71,0,0,0-11.65-5.55,43.15,43.15,0,0,0-12.6-1.71,22.38,22.38,0,0,0-12.06,3q-4.78,3-4.79,9.32a10.44,10.44,0,0,0,1.57,5.75,15.05,15.05,0,0,0,5.48,4.66,72.15,72.15,0,0,0,10.9,4.66l2.32.82a115.06,115.06,0,0,1,14.66,6,27.46,27.46,0,0,1,9.46,8.08q4,5.28,4,13.64a24,24,0,0,1-4,14,24.45,24.45,0,0,1-11.37,8.63,47.44,47.44,0,0,1-17.54,2.94A56,56,0,0,1,282,896.21Z" transform="translate(91.44)"/><path class="cls-8" d="M414,808.46v11H383.27v77.82H370.66V819.42H339.84v-11Z" transform="translate(91.44)"/><path class="cls-8" d="M493.55,896.42v.82H479l-25.62-34.66H440.26v34.66h-12.6V808.46h28.9q10.41,0,17.61,3.29A24,24,0,0,1,485,820.93a25.58,25.58,0,0,1,3.63,13.7,28.14,28.14,0,0,1-2.4,11.65,25,25,0,0,1-7.19,9.24,30.14,30.14,0,0,1-11.92,5.69Zm-53.29-44.25h14.39q10.28,0,15.54-4.46t5.28-12.53q0-7.81-4.86-11.92t-14.32-4.11h-16Z" transform="translate(91.44)"/><path class="cls-8" d="M520.68,894.09a29.69,29.69,0,0,1-12.2-13.22,44.43,44.43,0,0,1-4-19.11v-53.3h12.61V859q0,28.9,24.93,28.9,12.74,0,18.43-7.33t5.68-20.75V808.46h12.61v52.89q0,13-4.94,21.44a29.36,29.36,0,0,1-13.35,12.26,46.13,46.13,0,0,1-19.25,3.83Q528.9,898.88,520.68,894.09Z" transform="translate(91.44)"/><path class="cls-8" d="M612.06,893.27a33.9,33.9,0,0,1-13.63-15.89Q594,867.11,594,853.13q0-16.17,5.69-26.51t14.86-15.07a43.35,43.35,0,0,1,20.14-4.73,53,53,0,0,1,28.91,8.08l-5.48,9.59a42.29,42.29,0,0,0-22.88-6.71q-14.25,0-21,9.32t-6.78,25.34q0,16.57,7.12,26t21,9.45a41.58,41.58,0,0,0,12.61-1.78,54.57,54.57,0,0,0,11.23-5.07l5.07,9.18a69.73,69.73,0,0,1-14.18,6.44,50.39,50.39,0,0,1-15.27,2.19Q621.23,898.88,612.06,893.27Z" transform="translate(91.44)"/><path class="cls-8" d="M742.89,808.46v11H712.2v77.82H699.6V819.42H668.78v-11Z" transform="translate(91.44)"/><path class="cls-8" d="M766.05,893.06a36.39,36.39,0,0,1-14-16.23q-4.72-10.41-4.72-24.25,0-15.35,5.75-25.62a36.73,36.73,0,0,1,15.35-15.21,45.69,45.69,0,0,1,21.23-4.93q13.29,0,22.6,5.82a36.47,36.47,0,0,1,14,16.24Q831,839.29,831,853.13q0,15.35-5.75,25.62A36.74,36.74,0,0,1,809.89,894a45.76,45.76,0,0,1-21.24,4.93Q775.36,898.88,766.05,893.06Zm38.84-9.31a26.86,26.86,0,0,0,9.72-12.27,47.44,47.44,0,0,0,3.22-18.22,52.09,52.09,0,0,0-3.08-18.7A26.83,26.83,0,0,0,805.37,822q-6.32-4.53-15.76-4.52-9.74,0-16.23,4.45a26.78,26.78,0,0,0-9.73,12.26,47.51,47.51,0,0,0-3.22,18.22,52,52,0,0,0,3.08,18.7,26.86,26.86,0,0,0,9.39,12.54q6.3,4.52,15.75,4.52Q798.39,888.2,804.89,883.75Z" transform="translate(91.44)"/><path class="cls-8" d="M914.28,896.42v.82H899.76l-25.62-34.66H861v34.66H848.38V808.46h28.91q10.41,0,17.6,3.29a24.06,24.06,0,0,1,10.83,9.18,25.67,25.67,0,0,1,3.63,13.7,28.14,28.14,0,0,1-2.4,11.65,25.11,25.11,0,0,1-7.19,9.24,30.21,30.21,0,0,1-11.92,5.69ZM861,852.17h14.38q10.27,0,15.55-4.46t5.27-12.53q0-7.81-4.86-11.92T877,819.15H861Z" transform="translate(91.44)"/><path class="cls-8" d="M967.78,808.46l33.35,88v.82H988l-9.3-25.34H940.89l-9.19,25.34H919.07v-.82l33.36-88Zm-23,53h30.14l-15-41.1Z" transform="translate(91.44)"/><path class="cls-8" d="M199,1014.27a34,34,0,0,1-13.64-15.89q-4.44-10.27-4.45-24.25,0-16.17,5.69-26.51t14.86-15.07a43.35,43.35,0,0,1,20.14-4.73,53.1,53.1,0,0,1,28.91,8.08L245,945.49a42.31,42.31,0,0,0-22.88-6.71q-14.25,0-21,9.32t-6.78,25.34q0,16.57,7.12,26t21,9.45a41.58,41.58,0,0,0,12.61-1.78,54.81,54.81,0,0,0,11.23-5.07l5.07,9.18a69.73,69.73,0,0,1-14.18,6.44,50.46,50.46,0,0,1-15.28,2.19Q208.19,1019.88,199,1014.27Z" transform="translate(91.44)"/><path class="cls-8" d="M276.14,1014.06a36.39,36.39,0,0,1-14.05-16.23q-4.72-10.41-4.72-24.25,0-15.35,5.75-25.62a36.73,36.73,0,0,1,15.35-15.21,45.69,45.69,0,0,1,21.23-4.93q13.29,0,22.61,5.82a36.45,36.45,0,0,1,14,16.24q4.72,10.41,4.72,24.25,0,15.35-5.75,25.62A36.74,36.74,0,0,1,320,1015a45.76,45.76,0,0,1-21.24,4.93Q285.45,1019.88,276.14,1014.06Zm38.84-9.31a26.86,26.86,0,0,0,9.72-12.27,47.44,47.44,0,0,0,3.22-18.22,51.88,51.88,0,0,0-3.08-18.7A26.76,26.76,0,0,0,315.46,943q-6.31-4.53-15.76-4.52-9.74,0-16.23,4.45a26.78,26.78,0,0,0-9.73,12.26,47.51,47.51,0,0,0-3.22,18.22,52,52,0,0,0,3.08,18.7,26.86,26.86,0,0,0,9.39,12.54q6.3,4.52,15.75,4.52Q308.48,1009.2,315,1004.75Z" transform="translate(91.44)"/><path class="cls-8" d="M371.08,1007.28h43.56v11H358.47V929.46h12.61Z" transform="translate(91.44)"/><path class="cls-8" d="M437.38,1014.06a36.37,36.37,0,0,1-14-16.23q-4.72-10.41-4.73-24.25,0-15.35,5.76-25.62a36.71,36.71,0,0,1,15.34-15.21A45.7,45.7,0,0,1,461,927.82q13.29,0,22.6,5.82a36.53,36.53,0,0,1,14.05,16.24q4.72,10.41,4.72,24.25,0,15.35-5.75,25.62a36.71,36.71,0,0,1-15.35,15.2,45.69,45.69,0,0,1-21.23,4.93Q446.7,1019.88,437.38,1014.06Zm38.84-9.31A26.88,26.88,0,0,0,486,992.48a47.44,47.44,0,0,0,3.22-18.22,52.09,52.09,0,0,0-3.08-18.7A26.84,26.84,0,0,0,476.7,943q-6.3-4.53-15.75-4.52-9.74,0-16.24,4.45A26.77,26.77,0,0,0,435,955.22a47.51,47.51,0,0,0-3.22,18.22,51.8,51.8,0,0,0,3.08,18.7,26.84,26.84,0,0,0,9.38,12.54q6.3,4.52,15.76,4.52Q469.71,1009.2,476.22,1004.75Z" transform="translate(91.44)"/><path class="cls-8" d="M609.87,929.46v88.78H597.54V950a98.87,98.87,0,0,1-5.35,12.33l-21.37,41.52H558.63l-21-41.52q-1.78-3.42-3.36-6.64c-1-2.15-1.9-4-2.53-5.55v68.09H519.72V929.46H534.1l20,39.19q8.07,15.89,10.82,24a101.92,101.92,0,0,1,4.18-10.55q2.67-5.88,6.64-13.42l20.14-39.19Z" transform="translate(91.44)"/><path class="cls-8" d="M692.06,979.88a22,22,0,0,1,4.52,13.56,22.94,22.94,0,0,1-3.63,12.74,24.1,24.1,0,0,1-10.89,8.84q-7.26,3.22-17.67,3.22H632.33V929.46h31a39.76,39.76,0,0,1,16,2.95,23.79,23.79,0,0,1,10.28,8.08,20.34,20.34,0,0,1,3.56,11.85,19.27,19.27,0,0,1-3.63,11.51q-3.63,5.07-11.44,7.67Q687.54,973.86,692.06,979.88Zm-47.12-40v27.94h16.57q8.36,0,13.57-3.49t5.2-11.16a12.47,12.47,0,0,0-1.92-6.85,12.77,12.77,0,0,0-5.68-4.73,21.94,21.94,0,0,0-9.11-1.71Zm34,63.84a13.84,13.84,0,0,0,4.39-10.55,14.07,14.07,0,0,0-4.66-11.1Q674,978,664.8,978H644.94v29.87h19.72Q674.53,1007.83,678.91,1003.72Z" transform="translate(91.44)"/><path class="cls-8" d="M714,1018.24V929.46h12.61v88.78Z" transform="translate(91.44)"/><path class="cls-8" d="M788.85,929.46l33.36,88v.82H809.08l-9.3-25.34H762l-9.2,25.34H740.15v-.82l33.36-88Zm-23,53H796l-15-41.1Z" transform="translate(91.44)"/><path class="cls-9" d="M649.69,76.27c1.74.12-17.06-16.39-25.45-7.17-1,1.43-1,7.21-2.61,6.52-14.42-4.83-16.51-17.38-15-30.66,4.26-10.82,23-15,29.35-22.83,0,0,8.62-12.39,13-14.36,3.58-1.58,11.2.24,15-.65C675.46.83,672.25,2,684.91,4.51c3.65-.12,10.75-1.87,14.36-1.3,6.56,1.59,6.71,6.15,13,10.44,20.62,6.88,16.15,11.22,33.93,24.79,18,11.16,25.24,37,43.06,50.88,84.77,83.44,138.62,116.27,178.75,214,.9,2.42-.25,7-1.31,9.14-11.25,19.56-18.91,33-31.31,45.67-8.48,2.89-12.57,4.83-15,15l-27.54.44-39.69-45.2c-20.75-31.26-60-118.54-75.31-153.8l-57-63L668,112.9" transform="translate(91.44)"/></g></g></svg>